<svg width="20" height="20" viewBox="0 0 20 20" fill="none" xmlns="http://www.w3.org/2000/svg">
<path fill-rule="evenodd" clip-rule="evenodd" d="M0.0227051 17.8752C0.0227051 18.9798 0.918136 19.8752 2.0227 19.8752H17.8915C18.996 19.8752 19.8915 18.9798 19.8915 17.8752V2.00644C19.8915 0.901868 18.996 0.00643921 17.8915 0.00643921H2.0227C0.918133 0.00643921 0.0227051 0.90187 0.0227051 2.00644V17.8752Z" fill="#0096DB"/>
<path fill-rule="evenodd" clip-rule="evenodd" d="M10 2C10.5501 2 11 2.47235 11 3.04939V6.95049C11 7.52777 10.5501 8 10 8C9.44994 8 9 7.52777 9 6.95049V3.04939C9 2.47235 9.44994 2 10 2Z" fill="#FEFEFE"/>
<path fill-rule="evenodd" clip-rule="evenodd" d="M2.05289 7.65825C2.23711 7.15978 2.85167 6.88451 3.41873 7.04645L7.25116 8.1411C7.81829 8.30304 8.13138 8.84331 7.94716 9.34178C7.76294 9.84025 7.14825 10.1155 6.58126 9.95353L2.74876 8.85899C2.18176 8.69693 1.86854 8.15672 2.05289 7.65825Z" fill="#FEFEFE"/>
<path fill-rule="evenodd" clip-rule="evenodd" d="M5.39315 16.8102C4.96767 16.4873 4.87252 15.8594 5.18163 15.415L7.2711 12.4108C7.58016 11.9662 8.18126 11.8668 8.60679 12.1898C9.03233 12.5128 9.12749 13.1406 8.81837 13.585L6.72885 16.5892C6.41973 17.0338 5.81869 17.1332 5.39315 16.8102Z" fill="#FEFEFE"/>
<path fill-rule="evenodd" clip-rule="evenodd" d="M14.6069 16.8103C14.1813 17.1332 13.5803 17.0337 13.2711 16.5893L11.1817 13.5851C10.8725 13.1405 10.9677 12.5127 11.3932 12.1897C11.8187 11.8668 12.4198 11.9663 12.7289 12.4107L14.8184 15.4149C15.1275 15.8594 15.0323 16.4873 14.6069 16.8103Z" fill="#FEFEFE"/>
<path fill-rule="evenodd" clip-rule="evenodd" d="M17.9471 7.65825C18.1314 8.15672 17.8183 8.69705 17.2511 8.85899L13.4188 9.95353C12.8517 10.1155 12.2372 9.84025 12.0528 9.34178C11.8686 8.84337 12.1817 8.30303 12.7488 8.1411L16.5812 7.04644C17.1481 6.8845 17.7628 7.15984 17.9471 7.65825Z" fill="#FEFEFE"/>
</svg>
