<svg width="76" height="76" viewBox="0 0 76 76" fill="none" xmlns="http://www.w3.org/2000/svg">
<path opacity="0.06" d="M54.6848 0H20.9089C9.36124 0 0 9.36124 0 20.9089V54.6848C0 66.2325 9.36124 75.5938 20.9089 75.5938H54.6848C66.2325 75.5938 75.5938 66.2325 75.5938 54.6848V20.9089C75.5938 9.36124 66.2325 0 54.6848 0Z" fill="#0089FF"/>
<path d="M37.7404 63.4808C51.9564 63.4808 63.4808 51.9564 63.4808 37.7404C63.4808 23.5243 51.9564 12 37.7404 12C23.5243 12 12 23.5243 12 37.7404C12 51.9564 23.5243 63.4808 37.7404 63.4808Z" fill="#1B76FF"/>
<path d="M22 35.4243L37.1565 22L52.746 35.4243" stroke="white" stroke-width="3" stroke-linecap="round"/>
<path d="M28.0626 30.2278V49.2817H47.1165V30.6608" stroke="white" stroke-width="3" stroke-linecap="round"/>
</svg>
