<svg width="76" height="76" viewBox="0 0 76 76" fill="none" xmlns="http://www.w3.org/2000/svg">
<path opacity="0.06" d="M54.9787 0H21.0213C9.41155 0 0 9.41155 0 21.0213V54.9787C0 66.5885 9.41155 76 21.0213 76H54.9787C66.5885 76 76 66.5885 76 54.9787V21.0213C76 9.41155 66.5885 0 54.9787 0Z" fill="#F6CA4F"/>
<path d="M37.8787 63.7575C52.1712 63.7575 63.7575 52.1712 63.7575 37.8787C63.7575 23.5863 52.1712 12 37.8787 12C23.5863 12 12 23.5863 12 37.8787C12 52.1712 23.5863 63.7575 37.8787 63.7575Z" fill="#FF6D35"/>
<rect x="30.5393" y="23" width="21" height="27" rx="4" stroke="white" stroke-width="2"/>
<path d="M36.5393 29H45.5393" stroke="white" stroke-width="2" stroke-linecap="round"/>
<path d="M36.5393 39H45.5393" stroke="white" stroke-width="2" stroke-linecap="round"/>
<path d="M36.5393 44H45.5393" stroke="white" stroke-width="2" stroke-linecap="round"/>
<path d="M36.5393 34H45.5393" stroke="white" stroke-width="2" stroke-linecap="round"/>
<path d="M30.5393 27L26.5393 27.5C25.0393 28 23.7565 29.5201 24.0394 31.5C24.5394 35 25.706 45.3333 26.5393 51C26.8335 53 28.8393 54 30.0393 54C31.5393 54 39.8727 53.1667 44.0393 52.5C45.206 52.3333 46.9393 51.6 46.5393 50" stroke="white" stroke-width="2"/>
</svg>
