<svg width="76" height="76" viewBox="0 0 76 76" fill="none" xmlns="http://www.w3.org/2000/svg">
<path opacity="0.06" d="M54.6848 0H20.9089C9.36124 0 0 9.36124 0 20.9089V54.6848C0 66.2325 9.36124 75.5938 20.9089 75.5938H54.6848C66.2325 75.5938 75.5938 66.2325 75.5938 54.6848V20.9089C75.5938 9.36124 66.2325 0 54.6848 0Z" fill="#5CC97B"/>
<path d="M37.7404 63.4808C51.9564 63.4808 63.4808 51.9564 63.4808 37.7404C63.4808 23.5243 51.9564 12 37.7404 12C23.5243 12 12 23.5243 12 37.7404C12 51.9564 23.5243 63.4808 37.7404 63.4808Z" fill="#5CC97B"/>
<path d="M27.7419 50L37.6474 43.1424C38.9245 42.2582 40.6653 42.4951 41.6597 43.6884L46.9194 50M52.0645 32.2258L47.3759 35.9767C46.088 37.007 45.8734 38.8837 46.8954 40.1782L52.0645 46.7258" stroke="white" stroke-width="2"/>
<path d="M24 45.3226L47.3871 28.4839" stroke="white" stroke-width="2" stroke-linecap="round"/>
<path d="M28.556 28.3301L33.1047 33.1613L37.1479 28.3301C38.1586 26.8808 38.664 24.4653 36.6424 22.5328C34.3912 20.3808 31.083 20.6003 29.0615 22.5327C27.2308 24.2827 27.5451 26.8808 28.556 28.3301Z" stroke="white" stroke-width="2"/>
<path d="M28.6774 28.4838C27.1183 28.3279 24 28.858 24 32.2257C24 35.5934 24 43.2956 24 46.7257C24 47.8171 24.7484 49.9999 27.7419 49.9999C30.7355 49.9999 43.0215 49.9999 48.7903 49.9999C49.8817 49.844 52.0645 48.9709 52.0645 46.7257C52.0645 44.4806 52.0645 36.1236 52.0645 32.2257C52.0645 31.048 52.0645 28.4838 48.7903 28.4838C46.5452 28.4838 40.0591 28.4838 37.0968 28.4838" stroke="white" stroke-width="2"/>
<path d="M24 33.1613C25.2473 33.3172 27.7419 32.6935 27.7419 35.9677C27.7419 38.7742 25.2473 38.6182 24 38.7742" stroke="white" stroke-width="2"/>
</svg>
