<svg width="94" height="19" viewBox="0 0 94 19" fill="none" xmlns="http://www.w3.org/2000/svg">
<g clip-path="url(#clip0_403_2)">
<path fill-rule="evenodd" clip-rule="evenodd" d="M10.125 14.0551L4.35732 17.8345L6.1694 11.1812L0.792725 6.86377L7.68029 6.53118L10.125 0.0834961L12.5696 6.53118L19.4572 6.86377L14.0805 11.1812L15.8926 17.8345L10.125 14.0551Z" fill="#FFC54F"/>
</g>
<g clip-path="url(#clip1_403_2)">
<path fill-rule="evenodd" clip-rule="evenodd" d="M34.75 14.0551L28.9823 17.8345L30.7944 11.1812L25.4177 6.86377L32.3053 6.53118L34.75 0.0834961L37.1946 6.53118L44.0822 6.86377L38.7055 11.1812L40.5176 17.8345L34.75 14.0551Z" fill="#FFC54F"/>
</g>
<g clip-path="url(#clip2_403_2)">
<path fill-rule="evenodd" clip-rule="evenodd" d="M59.375 14.0551L53.6073 17.8345L55.4194 11.1812L50.0427 6.86377L56.9303 6.53118L59.375 0.0834961L61.8196 6.53118L68.7072 6.86377L63.3305 11.1812L65.1426 17.8345L59.375 14.0551Z" fill="#FFC54F"/>
</g>
<g clip-path="url(#clip3_403_2)">
<path fill-rule="evenodd" clip-rule="evenodd" d="M84 14.0551L78.2323 17.8345L80.0444 11.1812L74.6677 6.86377L81.5553 6.53118L84 0.0834961L86.4446 6.53118L93.3322 6.86377L87.9555 11.1812L89.7676 17.8345L84 14.0551Z" fill="#FFC54F"/>
</g>
<defs>
<clipPath id="clip0_403_2">
<rect width="19.625" height="17.9896" fill="white" transform="translate(0.3125 0.0834961)"/>
</clipPath>
<clipPath id="clip1_403_2">
<rect width="19.625" height="17.9896" fill="white" transform="translate(24.9375 0.0834961)"/>
</clipPath>
<clipPath id="clip2_403_2">
<rect width="19.625" height="17.9896" fill="white" transform="translate(49.5625 0.0834961)"/>
</clipPath>
<clipPath id="clip3_403_2">
<rect width="19.625" height="17.9896" fill="white" transform="translate(74.1875 0.0834961)"/>
</clipPath>
</defs>
</svg>
