<svg width="226" height="40" viewBox="0 0 226 40" fill="none" xmlns="http://www.w3.org/2000/svg">
<rect y="0.221802" width="226" height="39"/>
<path d="M30 38.2218L0 39.2218C0 39.2218 5.96046e-05 37.7218 0.999999 37.2218C1.99994 36.7218 34 27.2218 34 27.2218C34 27.2218 34.4999 30.2218 32.9999 33.7218C31.5 37.2218 30 38.2218 30 38.2218Z" fill="#81818B"/>
<path d="M11.4298 27.2507C7.52622 29.0745 1.73987 33.3707 1.73987 33.3707L4.28981 24.7007C4.28981 24.7007 12.4498 20.6207 17.0398 19.0907C21.6298 17.5608 24.5258 18.4425 25.7098 19.0907C28.6017 20.6737 28.2599 26.2307 28.2599 26.2307C28.2599 26.2307 25.0397 24.1908 22.1398 24.1907C18.0598 24.1907 15.1976 25.4903 11.4298 27.2507Z" fill="#81818B"/>
<path d="M13.1528 13.3457C9.99895 15.0352 5.39621 18.86 5.39621 18.86L7.4595 11.7123C7.4595 11.7123 13.6976 7.80215 17.4339 6.32523C21.1703 4.84831 22.9483 5.17863 23.9595 5.66229C26.4292 6.84356 26.1595 12.2622 26.1595 12.2622C26.1595 12.2622 24.164 10.4806 21.7595 10.6122C18.3766 10.7974 16.197 11.7151 13.1528 13.3457Z" fill="#81818B"/>
<path d="M14.9999 2.72156C11.339 4.20979 9.89485 6.76564 9.89485 6.76564L11.1361 1.45274C15.7788 -0.10302 18.6937 0.0826735 24.0038 0.795541C24.0038 0.795541 19.8812 0.737249 14.9999 2.72156Z" fill="#81818B"/>
<path d="M103.5 36.2216H97.4999V4.22156H103.5L118.5 23.2216L133 4.22156H139V36.2216H132.5V13.7216L119 32.2216H117.5L103.5 13.7216V36.2216Z" fill="#81818B"/>
<path d="M145.5 4.22156V36.2216H153V10.2216H175.5V36.2216H182.5V4.22156H145.5Z" fill="#81818B"/>
<path d="M196 4.22156H189V17.7216C189 22.2216 192.5 23.2216 196 23.2216H218V30.2216H196V26.2216L189 27.7216V32.2216C189 36.7216 192.5 36.2216 195 36.2216H220.5C223.5 36.2216 225 34.7216 225 32.2216V4.22156H218V17.7216H196V4.22156Z" fill="#81818B"/>
<path fill-rule="evenodd" clip-rule="evenodd" d="M48.4999 36.2216L66.4999 4.22156H73.4999L91.9999 36.2216H83.9999L79.9999 29.2216H59.9999L55.9999 36.2216H48.4999ZM76.4999 23.2216H62.9999L69.9999 10.2216L76.4999 23.2216Z" fill="#81818B"/>
</svg>
