<svg width="127" height="40" viewBox="0 0 127 40" fill="none" xmlns="http://www.w3.org/2000/svg">
<rect x="61" y="35" width="4" height="4" fill="#81818B"/>
<path fill-rule="evenodd" clip-rule="evenodd" d="M127 0H0V32.2974H127V0ZM109.209 21.0754L107.019 22.444C108.388 25.7284 111.125 27.9181 114.136 27.9181C116.325 27.9181 120.157 26.0021 120.157 22.1702C120.157 18.3384 116.873 16.1487 113.862 14.7802C110.851 13.4116 110.578 12.5905 110.578 11.4957C110.578 10.6301 111.125 9.03232 113.588 9.03232C115.559 9.03232 117.329 10.3096 117.968 10.9483L119.61 9.03232C118.88 8.11996 116.654 6.29525 113.588 6.29525C109.756 6.29525 107.841 9.03232 107.841 11.4957C107.841 13.959 110.03 16.4224 113.862 17.7909C116.928 18.8858 117.511 21.1667 117.42 22.1702C117.42 23.0826 116.709 24.9073 113.862 24.9073C111.672 24.9073 109.665 22.2615 109.209 21.0754ZM23.2651 23.5388C22.5352 24.1775 20.3638 25.1811 17.5172 25.1811C13.959 25.1811 9.30603 21.6229 9.30603 17.2436C9.30603 12.8643 12.5905 9.03236 17.5172 9.03236C21.4586 9.03236 22.9914 10.1272 23.2651 10.6746V7.66382C23.118 7.59696 22.967 7.5203 22.8051 7.43814L22.8051 7.43812C21.8628 6.95977 20.5538 6.29529 17.5172 6.29529C14.7802 6.29529 6.56896 8.75865 6.56896 17.2436C6.56896 25.7285 13.959 27.6444 17.5172 27.6444C21.1733 27.6444 22.1702 27.097 23.2651 26.2759V23.5388ZM24.6336 27.097L34.2134 6.29529L43.5194 27.097H40.5086L34.2134 12.8643L27.9181 27.097H24.6336ZM44.8879 27.097L50.3621 6.29529L56.931 20.8018L63.2263 6.29529L68.9741 27.097H66.2371L62.9526 14.2328L56.931 27.097L50.9095 14.2328L47.8987 27.097H44.8879ZM70.8901 6.29529V27.097H73.6272V18.3384H79.375C81.1997 18.0647 84.8491 16.4772 84.8491 12.3168C84.8491 8.1565 81.1997 6.56899 79.375 6.29529H70.8901ZM87.8599 6.29529H90.597V21.0755C90.6882 22.444 91.8013 25.1811 95.5237 25.1811C99.2461 25.1811 100.542 22.444 100.724 21.0755V6.29529H103.187V21.0755C103.187 23.2651 101.655 27.6444 95.5237 27.6444C89.3927 27.6444 87.8599 23.2651 87.8599 21.0755V6.29529ZM35.8556 23.2651H32.2974V27.097H35.8556V23.2651ZM73.6272 9.03233V15.6013H78.8276C80.4698 15.6013 82.3858 14.7802 82.3858 12.3168C82.3858 9.85345 80.1961 9.03233 78.8276 9.03233H73.6272Z" fill="#81818B"/>
<path d="M8.776 39L7.424 36.936L8.056 36.552L9.688 39H8.776ZM6.544 37.208V36.552H7.92V37.208H6.544ZM8.128 36.968L7.4 36.872L8.752 34.76H9.576L8.128 36.968ZM4.016 39H3.104L4.728 36.552L5.36 36.936L4.016 39ZM6.776 39H6.008V34.76H6.776V39ZM6.24 37.208H4.872V36.552H6.24V37.208ZM4.664 36.968L3.216 34.76H4.032L5.384 36.872L4.664 36.968ZM11.9331 39V34.76H12.7011V37.848L15.3011 34.76H15.9971V39H15.2291V35.912L12.6371 39H11.9331ZM19.7278 39V35.232L19.9198 35.432H18.1758V34.76H22.0478V35.432H20.3118L20.4958 35.232V39H19.7278ZM23.2556 38.992L23.3036 38.344C23.341 38.3493 23.3756 38.3547 23.4076 38.36C23.4396 38.3653 23.469 38.368 23.4956 38.368C23.6663 38.368 23.7996 38.3093 23.8956 38.192C23.997 38.0747 24.0716 37.92 24.1196 37.728C24.1676 37.5307 24.2023 37.3093 24.2236 37.064C24.245 36.8187 24.261 36.5733 24.2716 36.328L24.3436 34.76H27.5996V39H26.8316V35.208L27.0156 35.432H24.8396L25.0156 35.2L24.9596 36.376C24.9436 36.7493 24.9143 37.0987 24.8716 37.424C24.829 37.7493 24.7623 38.0347 24.6716 38.28C24.5863 38.5253 24.4663 38.7173 24.3116 38.856C24.1623 38.9947 23.9676 39.064 23.7276 39.064C23.6583 39.064 23.5836 39.056 23.5036 39.04C23.429 39.0293 23.3463 39.0133 23.2556 38.992ZM32.3006 39.048C31.874 39.048 31.4953 38.9547 31.1646 38.768C30.834 38.5813 30.5726 38.3253 30.3806 38C30.1886 37.6693 30.0926 37.296 30.0926 36.88C30.0926 36.4587 30.1886 36.0853 30.3806 35.76C30.5726 35.4347 30.834 35.1813 31.1646 35C31.4953 34.8133 31.874 34.72 32.3006 34.72C32.722 34.72 33.098 34.8133 33.4286 35C33.7646 35.1813 34.026 35.4347 34.2126 35.76C34.4046 36.08 34.5006 36.4533 34.5006 36.88C34.5006 37.3013 34.4046 37.6747 34.2126 38C34.026 38.3253 33.7646 38.5813 33.4286 38.768C33.098 38.9547 32.722 39.048 32.3006 39.048ZM32.3006 38.376C32.5726 38.376 32.8153 38.3147 33.0286 38.192C33.2473 38.0693 33.418 37.896 33.5406 37.672C33.6633 37.4427 33.7246 37.1787 33.7246 36.88C33.7246 36.576 33.6633 36.3147 33.5406 36.096C33.418 35.872 33.2473 35.6987 33.0286 35.576C32.8153 35.4533 32.5726 35.392 32.3006 35.392C32.0286 35.392 31.786 35.4533 31.5726 35.576C31.3593 35.6987 31.1886 35.872 31.0606 36.096C30.9326 36.3147 30.8686 36.576 30.8686 36.88C30.8686 37.1787 30.9326 37.4427 31.0606 37.672C31.1886 37.896 31.3593 38.0693 31.5726 38.192C31.786 38.3147 32.0286 38.376 32.3006 38.376ZM37.0096 39V34.76H38.9776C39.4736 34.76 39.863 34.856 40.1456 35.048C40.4336 35.2347 40.5776 35.5013 40.5776 35.848C40.5776 36.1947 40.4416 36.464 40.1696 36.656C39.903 36.8427 39.5483 36.936 39.1056 36.936L39.2256 36.728C39.7323 36.728 40.1083 36.8213 40.3536 37.008C40.599 37.1947 40.7216 37.4693 40.7216 37.832C40.7216 38.2 40.583 38.488 40.3056 38.696C40.0336 38.8987 39.615 39 39.0496 39H37.0096ZM37.7616 38.408H38.9936C39.3136 38.408 39.5536 38.36 39.7136 38.264C39.8736 38.1627 39.9536 38.0027 39.9536 37.784C39.9536 37.56 39.879 37.3973 39.7296 37.296C39.5856 37.1893 39.3563 37.136 39.0416 37.136H37.7616V38.408ZM37.7616 36.584H38.9136C39.207 36.584 39.4283 36.5307 39.5776 36.424C39.7323 36.312 39.8096 36.1573 39.8096 35.96C39.8096 35.7573 39.7323 35.6053 39.5776 35.504C39.4283 35.4027 39.207 35.352 38.9136 35.352H37.7616V36.584ZM43.3237 39V34.76H44.0917V37.848L46.6917 34.76H47.3877V39H46.6197V35.912L44.0277 39H43.3237ZM50.2784 39V34.76H51.0464V37.848L53.6464 34.76H54.3424V39H53.5744V35.912L50.9824 39H50.2784ZM52.2624 34.208C51.873 34.208 51.5664 34.1147 51.3424 33.928C51.1237 33.736 51.0117 33.4613 51.0064 33.104H51.5264C51.5317 33.3067 51.5984 33.4667 51.7264 33.584C51.8597 33.7013 52.0357 33.76 52.2544 33.76C52.473 33.76 52.649 33.7013 52.7824 33.584C52.9157 33.4667 52.985 33.3067 52.9904 33.104H53.5264C53.521 33.4613 53.4064 33.736 53.1824 33.928C52.9584 34.1147 52.6517 34.208 52.2624 34.208Z" fill="#81818B"/>
<path d="M74.816 39L73.176 36.936L73.808 36.552L75.72 39H74.816ZM71.744 39V34.76H72.512V39H71.744ZM72.28 37.208V36.552H73.68V37.208H72.28ZM73.872 36.968L73.16 36.872L74.784 34.76H75.608L73.872 36.968ZM79.8806 39.048C79.454 39.048 79.0753 38.9547 78.7446 38.768C78.414 38.5813 78.1526 38.3253 77.9606 38C77.7686 37.6693 77.6726 37.296 77.6726 36.88C77.6726 36.4587 77.7686 36.0853 77.9606 35.76C78.1526 35.4347 78.414 35.1813 78.7446 35C79.0753 34.8133 79.454 34.72 79.8806 34.72C80.302 34.72 80.678 34.8133 81.0086 35C81.3446 35.1813 81.606 35.4347 81.7926 35.76C81.9846 36.08 82.0806 36.4533 82.0806 36.88C82.0806 37.3013 81.9846 37.6747 81.7926 38C81.606 38.3253 81.3446 38.5813 81.0086 38.768C80.678 38.9547 80.302 39.048 79.8806 39.048ZM79.8806 38.376C80.1526 38.376 80.3953 38.3147 80.6086 38.192C80.8273 38.0693 80.998 37.896 81.1206 37.672C81.2433 37.4427 81.3046 37.1787 81.3046 36.88C81.3046 36.576 81.2433 36.3147 81.1206 36.096C80.998 35.872 80.8273 35.6987 80.6086 35.576C80.3953 35.4533 80.1526 35.392 79.8806 35.392C79.6086 35.392 79.366 35.4533 79.1526 35.576C78.9393 35.6987 78.7686 35.872 78.6406 36.096C78.5126 36.3147 78.4486 36.576 78.4486 36.88C78.4486 37.1787 78.5126 37.4427 78.6406 37.672C78.7686 37.896 78.9393 38.0693 79.1526 38.192C79.366 38.3147 79.6086 38.376 79.8806 38.376ZM84.8696 39V34.76H85.6616L87.4856 37.896H87.1656L89.0376 34.76H89.7576V39H89.0616V35.624L89.1896 35.696L87.4776 38.52H87.1416L85.4216 35.64L85.5736 35.608V39H84.8696ZM92.9324 39V34.76H96.8604V39H96.0924V35.24L96.2764 35.432H93.5164L93.7004 35.24V39H92.9324ZM99.3225 38.992L99.3705 38.344C99.4078 38.3493 99.4425 38.3547 99.4745 38.36C99.5065 38.3653 99.5358 38.368 99.5625 38.368C99.7332 38.368 99.8665 38.3093 99.9625 38.192C100.064 38.0747 100.138 37.92 100.186 37.728C100.234 37.5307 100.269 37.3093 100.29 37.064C100.312 36.8187 100.328 36.5733 100.338 36.328L100.41 34.76H103.666V39H102.898V35.208L103.082 35.432H100.906L101.082 35.2L101.026 36.376C101.01 36.7493 100.981 37.0987 100.938 37.424C100.896 37.7493 100.829 38.0347 100.738 38.28C100.653 38.5253 100.533 38.7173 100.378 38.856C100.229 38.9947 100.034 39.064 99.7945 39.064C99.7252 39.064 99.6505 39.056 99.5705 39.04C99.4958 39.0293 99.4132 39.0133 99.3225 38.992ZM108.72 39.048C108.266 39.048 107.866 38.9547 107.52 38.768C107.178 38.5813 106.912 38.3253 106.72 38C106.533 37.6747 106.44 37.3013 106.44 36.88C106.44 36.4587 106.53 36.0853 106.712 35.76C106.898 35.4347 107.152 35.1813 107.472 35C107.797 34.8133 108.162 34.72 108.568 34.72C108.978 34.72 109.341 34.8107 109.656 34.992C109.97 35.1733 110.216 35.4293 110.392 35.76C110.573 36.0853 110.664 36.4667 110.664 36.904C110.664 36.936 110.661 36.9733 110.656 37.016C110.656 37.0587 110.653 37.0987 110.648 37.136H107.04V36.584H110.248L109.936 36.776C109.941 36.504 109.885 36.2613 109.768 36.048C109.65 35.8347 109.488 35.6693 109.28 35.552C109.077 35.4293 108.84 35.368 108.568 35.368C108.301 35.368 108.064 35.4293 107.856 35.552C107.648 35.6693 107.485 35.8373 107.368 36.056C107.25 36.2693 107.192 36.5147 107.192 36.792V36.92C107.192 37.2027 107.256 37.456 107.384 37.68C107.517 37.8987 107.701 38.0693 107.936 38.192C108.17 38.3147 108.44 38.376 108.744 38.376C108.994 38.376 109.221 38.3333 109.424 38.248C109.632 38.1627 109.813 38.0347 109.968 37.864L110.392 38.36C110.2 38.584 109.96 38.7547 109.672 38.872C109.389 38.9893 109.072 39.048 108.72 39.048ZM116.607 39L114.967 36.936L115.599 36.552L117.511 39H116.607ZM113.535 39V34.76H114.303V39H113.535ZM114.071 37.208V36.552H115.471V37.208H114.071ZM115.663 36.968L114.951 36.872L116.575 34.76H117.399L115.663 36.968ZM121.704 39.048C121.272 39.048 120.885 38.9547 120.544 38.768C120.208 38.5813 119.944 38.3253 119.752 38C119.56 37.6747 119.464 37.3013 119.464 36.88C119.464 36.4587 119.56 36.0853 119.752 35.76C119.944 35.4347 120.208 35.1813 120.544 35C120.885 34.8133 121.272 34.72 121.704 34.72C122.088 34.72 122.429 34.7973 122.728 34.952C123.032 35.1013 123.266 35.3253 123.432 35.624L122.848 36C122.709 35.792 122.538 35.64 122.336 35.544C122.138 35.4427 121.925 35.392 121.696 35.392C121.418 35.392 121.17 35.4533 120.952 35.576C120.733 35.6987 120.56 35.872 120.432 36.096C120.304 36.3147 120.24 36.576 120.24 36.88C120.24 37.184 120.304 37.448 120.432 37.672C120.56 37.896 120.733 38.0693 120.952 38.192C121.17 38.3147 121.418 38.376 121.696 38.376C121.925 38.376 122.138 38.328 122.336 38.232C122.538 38.1307 122.709 37.976 122.848 37.768L123.432 38.136C123.266 38.4293 123.032 38.656 122.728 38.816C122.429 38.9707 122.088 39.048 121.704 39.048Z" fill="#81818B"/>
</svg>
