<svg width="90" height="40" viewBox="0 0 90 40" fill="none" xmlns="http://www.w3.org/2000/svg">
<path d="M25.5972 25.2424C25.5972 25.2424 25.4967 25.3294 25.3092 25.4031C24.9943 25.5237 24.3043 25.6376 23.8756 25.7448C23.5407 25.8252 23.1655 25.9189 22.7636 26.0931C21.6851 26.5486 21.1291 27.2989 20.841 28.6655C20.6735 29.4694 20.774 30.1258 21.1291 30.5613C21.3903 30.8895 21.7789 31.057 22.2545 31.057C24.1771 31.057 24.78 29.2148 25.068 27.8281L25.5972 25.2357M25.6508 16.2592C28.2902 16.2592 29.8912 16.7214 30.6951 17.7128C31.1305 18.2487 31.3583 18.9722 31.365 19.8766C31.365 20.3857 31.298 20.9417 31.1707 21.5714L29.362 30.3C29.1208 31.5058 28.9601 32.4303 28.9735 33.1939C28.9735 33.4351 28.9936 33.6629 29.0271 33.8705C28.2969 33.8705 24.646 33.8705 24.0833 33.8705C24.0833 33.8169 24.0766 33.7633 24.0766 33.7097C24.0766 33.3413 24.1034 32.9662 24.1302 32.5642L24.1838 31.8475H23.9024L23.8019 32.0149C22.9043 33.4418 20.8946 34.326 19.1663 34.326C17.7394 34.326 16.7145 33.9576 16.1183 33.2341C15.4752 32.437 15.3144 31.1843 15.6628 29.5162C16.3327 26.2606 17.8131 24.8806 21.5377 24.05L23.9962 23.4873C25.4566 23.1657 26.1666 22.5226 26.4279 21.2565C26.5686 20.5665 26.4949 20.0306 26.1934 19.6622C25.9255 19.3272 25.4766 19.1598 24.8871 19.1598C23.5608 19.1598 22.8641 19.8364 22.4287 21.5379C21.9731 21.5379 18.7376 21.5379 18.0208 21.5379C19.2065 16.9558 23.2861 16.2592 25.6508 16.2592Z" fill="#81818B"/>
<path d="M48.0787 25.0682C47.5562 27.6137 47.5763 28.5851 48.0854 29.2148C48.3466 29.5296 48.7285 29.6837 49.251 29.6837C50.718 29.6837 51.4214 28.7928 52.1717 25.2222C52.7009 22.6566 52.7612 21.0354 52.2454 20.4057C52.0042 20.1043 51.6291 19.9502 51.1334 19.9502C49.6261 19.9569 48.8156 21.491 48.0787 25.0682ZM43.3158 32.3298C42.2708 31.0436 42.0631 29.0339 42.7866 25.4433C44.3608 17.6324 47.3284 16.2524 49.9075 16.2524C51.1401 16.2524 52.9823 16.708 53.21 18.865L53.2368 19.1999H53.5986C53.5986 19.1999 54.0139 17.1702 54.1077 16.7214C54.59 16.7214 58.194 16.7214 58.9108 16.7214C58.7366 17.5654 55.3403 33.8638 55.3403 33.8638C54.4895 37.9635 51.8636 40 47.0404 40C42.5655 40 41.9023 37.3606 41.8018 36.5501C41.7616 36.2419 41.8688 35.3242 41.8688 35.3242C42.3846 35.3242 45.8882 35.3242 46.5513 35.3242C46.5513 35.3309 46.5513 35.3309 46.5513 35.3309C46.5513 35.7462 46.5781 36.3625 46.7188 36.5367C46.9131 36.7778 47.0739 37.0592 47.8174 37.0592C48.7955 37.0592 49.74 36.7711 50.2022 34.5471L50.9927 30.7019H50.6109L50.497 30.8828C49.5457 32.5441 47.7638 33.3815 45.8815 33.3815C44.7359 33.3815 43.8852 33.0398 43.3158 32.3298Z" fill="#81818B"/>
<path d="M66.6145 16.728C66.4403 17.552 63.1847 33.3279 63.0641 33.8705C62.5684 33.8705 58.5959 33.8705 57.8725 33.8705C58.0399 33.0398 61.3023 17.2706 61.4162 16.728C61.9052 16.728 65.8776 16.728 66.6145 16.728Z" fill="#81818B"/>
<path d="M76.1604 11.0072C75.9795 11.8446 71.5449 33.3145 71.4243 33.8705C70.9286 33.8705 66.9561 33.8705 66.2327 33.8705C66.4001 33.0264 70.8482 11.5632 70.9621 11.0072C71.4511 11.0072 75.4235 11.0072 76.1604 11.0072Z" fill="#81818B"/>
<path d="M84.4938 11.0072C84.3196 11.8446 79.8783 33.3145 79.7577 33.8705C79.262 33.8705 75.2895 33.8705 74.5661 33.8705C74.7335 33.0264 79.1816 11.5632 79.2955 11.0072C79.7912 11.0072 83.7703 11.0072 84.4938 11.0072Z" fill="#81818B"/>
<path d="M44.0527 16.2591C42.3445 16.2591 40.3214 17.4515 39.3367 19.3674L39.2362 19.5684H38.8543C38.8543 19.5684 39.3099 17.3578 39.4438 16.7281C39.3434 16.7281 39.1893 16.7281 38.995 16.7281V16.7214C38.4256 16.7214 34.768 16.7214 34.0512 16.7214C34.078 16.9357 34.1048 17.1635 34.1048 17.4046C34.1048 17.954 34.0311 18.5904 33.8905 19.354C32.9325 24.0097 31.0167 33.2408 30.8894 33.8705C31.6129 33.8705 35.5987 33.8705 36.0944 33.8705C36.4227 32.2628 38.0438 24.4117 38.0438 24.4117C38.5395 22.047 39.9195 20.9484 42.3981 20.9484C42.8268 20.9484 43.2086 20.9685 43.5704 21.022C43.6909 20.466 44.4211 16.9558 44.5618 16.2524C44.3072 16.2591 44.0527 16.2591 44.0527 16.2591Z" fill="#81818B"/>
<path d="M1.01903 32.9795C-0.273851 31.3852 -0.334141 28.4578 0.824766 22.8575C2.68036 13.9212 5.34651 10.9 11.4224 10.9C13.8474 10.9 15.5556 11.4828 16.4868 12.6216C17.083 13.3652 17.3911 14.37 17.3978 15.6361C17.3978 16.3261 17.3107 17.0898 17.1432 17.9272C17.1432 17.9272 16.9825 18.6908 16.8887 19.1196C16.393 19.1196 11.7707 19.1196 11.7707 19.1196C11.7707 19.1196 12.1526 16.6812 12.1459 16.1452C12.1459 15.5357 12.1191 15.2141 11.8913 14.906C11.6502 14.5844 11.2951 14.3299 10.7324 14.3299C8.46819 14.3299 7.72462 16.4869 6.43843 22.7102C5.4403 27.5401 5.07856 29.7641 5.84893 30.7086C6.15038 31.0704 6.58581 31.2378 7.2021 31.2378C8.984 31.2378 9.69409 29.7105 10.585 25.4634C11.0674 25.4634 15.0063 25.4634 15.7432 25.4634C15.6427 25.9591 15.4752 26.7697 15.4752 26.7697C14.3967 32.0082 11.3152 34.6677 6.35134 34.6677C3.65839 34.6677 1.96358 34.1251 1.01903 32.9795Z" fill="#81818B"/>
<path d="M85.5991 10.9939H87.16L87.1064 11.2418H86.4633L86.0078 13.4725H85.7264L86.1953 11.2418H85.5522" fill="#81818B"/>
<path d="M89.0424 10.9939H89.5314L89.0223 13.4792H88.7409L89.1696 11.4293C89.1897 11.3221 89.2165 11.2216 89.2366 11.1145H89.2299C89.1763 11.2618 89.1295 11.3556 89.0893 11.4494L88.1447 13.4725H87.8165L87.716 11.4159C87.716 11.3288 87.716 11.2484 87.716 11.1145H87.7093C87.6825 11.2216 87.6691 11.3288 87.6423 11.436L87.2203 13.4725H86.9523L87.4614 10.9872H87.9437L88.0308 12.9232C88.0375 13.0303 88.0308 13.1375 88.0107 13.2916C88.0576 13.1643 88.0911 13.037 88.1514 12.9232" fill="#81818B"/>
<path d="M67.0499 14.705C67.4653 5.27969 56.0973 -1.79433 45.4996 0.402902C34.902 2.60014 29.7707 11.8312 28.4309 14.6849H30.1659C32.4837 10.7795 34.835 7.75158 38.8409 6.61947C41.3865 5.90269 43.3828 6.06346 48.3065 8.81C50.5707 10.0761 55.702 13.8744 61.2085 14.638C63.6 14.973 67.0499 14.705 67.0499 14.705Z" fill="#81818B"/>
</svg>
