<svg width="95" height="42" viewBox="0 0 95 42" fill="none" xmlns="http://www.w3.org/2000/svg">
<path d="M68.9192 13.2346C65.5377 13.2346 62.6914 10.9392 61.8315 7.81384H76.0064C75.1469 10.9392 72.3002 13.2346 68.9192 13.2346ZM64.1826 34.2103H58.7621V17.4334C58.7621 13.3129 54.2531 13.2656 54.0611 13.2656H49.0904V7.81384H54.0611C56.4142 7.81384 58.7901 8.58949 60.5797 9.94141C62.9029 11.6968 64.1826 14.3576 64.1826 17.4334V34.2103ZM43.4169 34.2103H37.7955V7.81364H43.4169V34.2103ZM32.1741 12.1129C27.6136 12.488 24.0285 16.3286 24.0285 21.0123C24.0285 25.6954 27.6136 29.5363 32.1741 29.9113V34.2093C32.1406 34.2093 32.1073 34.2103 32.0738 34.2103C26.91 34.2103 22.445 31.2097 20.303 26.8486C18.161 31.2097 13.696 34.2103 8.53215 34.2103C8.49867 34.2103 8.46547 34.2093 8.43199 34.2093V29.9113C12.9927 29.5363 16.5773 25.6954 16.5773 21.0123C16.5773 16.3286 12.9927 12.488 8.43199 12.1129V7.8152C8.46547 7.81468 8.49867 7.81384 8.53215 7.81384C13.696 7.81384 18.161 10.8145 20.303 15.1757C22.445 10.8145 26.91 7.81384 32.0738 7.81384C32.1073 7.81384 32.1406 7.81468 32.1741 7.8152V12.1129ZM46.1642 0.735962C45.4903 3.18674 43.2577 4.98693 40.6061 4.98693C37.9545 4.98693 35.7226 3.18674 35.0482 0.735962H0V41.2882H84.4408V0.735962H46.1642Z" fill="#81818B"/>
<path d="M94.9018 38.5242V39.8753H87.2735V38.5133L90.8369 35.8877L87.2735 33.383V32.1088H94.9018V33.449H89.3876L92.7766 35.8768V36.0744L89.4203 38.5242H94.9018Z" fill="#81818B"/>
<path d="M91.8037 22.211L89.0963 23.3263L91.8037 24.4526V22.211ZM95 25.7647V27.1206L87.3677 23.8838V22.703L95 19.4666V20.8988L93.0539 21.6972V24.9666L95 25.7647Z" fill="#81818B"/>
<path d="M94.978 10.2888V15.078H87.3677V13.733H93.7279V10.2888H94.978Z" fill="#81818B"/>
<path d="M94.978 1.11108V5.90032H87.3677V4.55554H93.7279V1.11108H94.978Z" fill="#81818B"/>
</svg>
