<svg width="90" height="41" viewBox="0 0 90 41" fill="none" xmlns="http://www.w3.org/2000/svg">
<path fill-rule="evenodd" clip-rule="evenodd" d="M33.6714 17.4143H57L51.5 9L37.0094 12.5L33.6714 17.4143ZM45.5 0L40.066 8H50.783L45.5 0Z" fill="#81818B"/>
<path d="M27.5 26.5H63L57.6585 18.4115L30.7385 21.7322L27.5 26.5Z" fill="#81818B"/>
<path d="M40.5 3.5L37.5 8L0.5 5.5L40.5 3.5Z" fill="#81818B"/>
<path d="M31.5 16.5L34 13L0.5 14.5L31.5 16.5Z" fill="#81818B"/>
<path d="M26 25L28 22L0.5 23.5L26 25Z" fill="#81818B"/>
<path d="M56.5 3.5L53 8L90 5.5L56.5 3.5Z" fill="#81818B"/>
<path d="M59 16.5L61.5 13L90 14.5L59 16.5Z" fill="#81818B"/>
<path d="M64.5 25L67 22L90 23.5L64.5 25Z" fill="#81818B"/>
<path d="M0.6 38.5V32.9H1.904L4.216 36.708H3.528L5.792 32.9H7.096L7.112 38.5H5.648L5.64 35.116H5.888L4.2 37.948H3.496L1.76 35.116H2.056V38.5H0.6ZM11.1591 35.068H13.7591V36.252H11.1591V35.068ZM11.2711 37.276H14.1991V38.5H9.70312V32.9H14.0951V34.124H11.2711V37.276ZM17.7416 38.5V33.804L18.0936 34.156H16.0216V32.9H21.0136V34.156H18.9496L19.3016 33.804V38.5H17.7416ZM22.3025 38.5L24.7745 32.9H26.3345L28.8145 38.5H27.1665L25.2305 33.676H25.8545L23.9185 38.5H22.3025ZM23.6545 37.412L24.0625 36.244H26.7985L27.2065 37.412H23.6545ZM31.1429 38.596C31.0363 38.596 30.9216 38.588 30.7989 38.572C30.6816 38.556 30.5563 38.532 30.4229 38.5L30.5109 37.204C30.5856 37.22 30.6576 37.228 30.7269 37.228C30.9456 37.228 31.1109 37.1427 31.2229 36.972C31.3349 36.796 31.4123 36.5507 31.4549 36.236C31.5029 35.9213 31.5323 35.5533 31.5429 35.132L31.6229 32.9H36.1349V38.5H34.5749V33.804L34.9189 34.156H32.6549L32.9749 33.788L32.9349 35.068C32.9189 35.612 32.8816 36.1027 32.8229 36.54C32.7643 36.972 32.6709 37.3427 32.5429 37.652C32.4149 37.956 32.2363 38.1907 32.0069 38.356C31.7829 38.516 31.4949 38.596 31.1429 38.596ZM42.0369 32.892H43.8529L44.8529 34.412L45.8449 32.892H47.6849L45.8449 35.572L47.8449 38.5H45.9809L44.8529 36.844L43.7329 38.5H41.9089L43.9009 35.644L42.0369 32.892ZM52.4489 38.612C52.0009 38.612 51.5875 38.54 51.2089 38.396C50.8302 38.252 50.4995 38.0493 50.2169 37.788C49.9395 37.5213 49.7235 37.212 49.5689 36.86C49.4142 36.508 49.3369 36.1213 49.3369 35.7C49.3369 35.2787 49.4142 34.892 49.5689 34.54C49.7235 34.188 49.9395 33.8813 50.2169 33.62C50.4995 33.3533 50.8302 33.148 51.2089 33.004C51.5875 32.86 52.0009 32.788 52.4489 32.788C52.9022 32.788 53.3155 32.86 53.6889 33.004C54.0675 33.148 54.3955 33.3533 54.6729 33.62C54.9502 33.8813 55.1662 34.188 55.3209 34.54C55.4809 34.892 55.5609 35.2787 55.5609 35.7C55.5609 36.1213 55.4809 36.5107 55.3209 36.868C55.1662 37.22 54.9502 37.5267 54.6729 37.788C54.3955 38.0493 54.0675 38.252 53.6889 38.396C53.3155 38.54 52.9022 38.612 52.4489 38.612ZM52.4489 37.3C52.6622 37.3 52.8595 37.2627 53.0409 37.188C53.2275 37.1133 53.3875 37.0067 53.5209 36.868C53.6595 36.724 53.7662 36.5533 53.8409 36.356C53.9209 36.1587 53.9609 35.94 53.9609 35.7C53.9609 35.4547 53.9209 35.236 53.8409 35.044C53.7662 34.8467 53.6595 34.6787 53.5209 34.54C53.3875 34.396 53.2275 34.2867 53.0409 34.212C52.8595 34.1373 52.6622 34.1 52.4489 34.1C52.2355 34.1 52.0355 34.1373 51.8489 34.212C51.6675 34.2867 51.5075 34.396 51.3689 34.54C51.2355 34.6787 51.1289 34.8467 51.0489 35.044C50.9742 35.236 50.9369 35.4547 50.9369 35.7C50.9369 35.94 50.9742 36.1587 51.0489 36.356C51.1289 36.5533 51.2355 36.724 51.3689 36.868C51.5075 37.0067 51.6675 37.1133 51.8489 37.188C52.0355 37.2627 52.2355 37.3 52.4489 37.3ZM57.8836 38.596C57.7769 38.596 57.6622 38.588 57.5396 38.572C57.4222 38.556 57.2969 38.532 57.1636 38.5L57.2516 37.204C57.3262 37.22 57.3982 37.228 57.4676 37.228C57.6862 37.228 57.8516 37.1427 57.9636 36.972C58.0756 36.796 58.1529 36.5507 58.1956 36.236C58.2436 35.9213 58.2729 35.5533 58.2836 35.132L58.3636 32.9H62.8756V38.5H61.3156V33.804L61.6596 34.156H59.3956L59.7156 33.788L59.6756 35.068C59.6596 35.612 59.6222 36.1027 59.5636 36.54C59.5049 36.972 59.4116 37.3427 59.2836 37.652C59.1556 37.956 58.9769 38.1907 58.7476 38.356C58.5236 38.516 58.2356 38.596 57.8836 38.596ZM69.1538 37.812V34.156H67.5458L67.5218 34.764C67.5111 35.0893 67.4898 35.3933 67.4578 35.676C67.4311 35.9587 67.3911 36.2173 67.3378 36.452C67.2898 36.6867 67.2231 36.8893 67.1378 37.06C67.0578 37.2253 66.9591 37.3533 66.8418 37.444L65.1538 37.244C65.3405 37.2493 65.4925 37.188 65.6098 37.06C65.7325 36.9267 65.8285 36.7427 65.8978 36.508C65.9725 36.2733 66.0258 35.996 66.0578 35.676C66.0951 35.356 66.1218 35.0067 66.1378 34.628L66.2018 32.9H70.7138V37.812H69.1538ZM64.9858 39.628V37.244H71.4738V39.628H70.0258V38.5H66.4418V39.628H64.9858ZM73.6313 38.5V32.9H75.1913V38.5H73.6313ZM81.5331 32.9H83.1171V38.5H81.5331V32.9ZM79.3731 38.5H77.7891V32.9H79.3731V38.5ZM81.6451 36.316H79.2611V35.004H81.6451V36.316ZM85.7203 38.5V32.9H89.8243L89.8163 34.156H86.9283L87.2803 33.804V38.5H85.7203Z" fill="#81818B"/>
<circle cx="39.25" cy="35.75" r="1.25" fill="#81818B"/>
</svg>
