<svg width="236" height="41" viewBox="0 0 236 41" fill="none" xmlns="http://www.w3.org/2000/svg">
<path d="M84.2291 9.53552V31.5213H101.849V27.7063H89.0667V22.318H101.849V18.4636H89.0667V13.3506H101.849V9.53552H84.2291Z" fill="#81818B"/>
<path d="M123.835 31.5213V9.49609H128.476V31.5213H123.835Z" fill="#81818B"/>
<path d="M63.1085 9.49609L68.6148 26.6836L74.3964 9.49609H81.2006V31.5213H76.7563V15.0417L71.014 31.5213H66.1763L60.7487 15.0417V31.5213H56.265V9.49609H63.1085Z" fill="#81818B"/>
<path d="M110.345 13.4292H103.344V9.49609H122.34V13.4292H115.025V31.5213H110.345V13.4292Z" fill="#81818B"/>
<path d="M176.695 9.53552V31.5213H194.316V27.7063H181.533V22.318H194.316V18.4636H181.533V13.3506H194.316V9.53552H176.695Z" fill="#81818B"/>
<path d="M224.01 13.4292H217.009V9.49609H235.967V13.4292H228.651V31.5213H224.01V13.4292Z" fill="#81818B"/>
<path d="M146.49 25.307L137.443 9.49609H131.583V31.5213H136.342L136.146 14.8451L145.624 31.5213H150.973V9.49609H146.254L146.49 25.307Z" fill="#81818B"/>
<path d="M163.874 25.897L157.305 9.49609H152.035L161.632 31.5213H166.469L175.594 9.49609H170.678L163.874 25.897Z" fill="#81818B"/>
<path d="M209.379 18.6995H203.244C201.316 18.6995 200.333 17.9129 200.333 16.3003C200.333 14.2945 201.434 13.3899 203.873 13.3899H215.318V9.45679H203.204C200.53 9.45679 198.563 10.0074 197.344 11.0693C196.085 12.1313 195.495 13.8618 195.495 16.1823C195.495 20.5874 197.737 22.5146 202.85 22.5146H208.317C210.716 22.5146 211.582 23.2225 211.582 25.0317C211.582 26.8409 210.598 27.5096 208.003 27.5096H196.4V31.4426H208.75C214.06 31.4426 216.459 29.3974 216.459 24.8351C216.459 22.5932 215.908 21.02 214.846 20.0761C213.745 19.1715 211.896 18.6995 209.379 18.6995Z" fill="#81818B"/>
<path d="M34.3578 1.55137C34.3578 1.55137 31.4474 0.371453 31.054 0.174799C30.6607 0.0174767 30.2674 -0.0218491 29.8348 0.0568122C29.4022 0.135473 29.0875 0.371453 28.9302 0.568106C28.7729 0.725428 22.5586 6.93967 22.5586 6.93967C22.5586 6.93967 16.3837 0.843423 16.1871 0.607439C15.9904 0.410786 15.7544 0.214135 15.2431 0.0568122C14.7318 -0.0611798 14.2992 0.0174767 14.0632 0.174799C13.7879 0.292791 11.1527 1.39405 10.7594 1.55137C10.4055 1.66936 10.0515 1.98401 9.8155 2.33798C9.65818 2.65263 9.50085 2.96728 9.50085 3.36058C9.50085 3.00661 9.50085 12.0133 9.50085 12.0133L15.2038 15.3171V7.80494L17.8783 10.4794C18.0749 10.6761 18.3109 10.7941 18.5862 10.9121C18.7829 10.9907 18.9402 11.0301 19.2549 11.0301C19.5695 11.0301 25.7444 11.0301 25.7444 11.0301C25.9804 11.0301 26.2164 10.9907 26.413 10.9121C26.649 10.7941 26.885 10.6761 27.1603 10.4008C27.4356 10.1255 29.7955 7.76562 29.7955 7.76562V15.2778L35.4984 11.974C35.4984 11.974 35.4984 4.26519 35.4984 3.39992C35.5377 2.53464 35.0658 1.86602 34.3578 1.55137Z" fill="#81818B"/>
<path d="M0.0221399 20.1941C0.0221399 20.1941 0.415447 23.3012 0.494108 23.7338C0.572769 24.1665 0.730092 24.5204 1.04474 24.8744C1.35938 25.1891 1.71336 25.3464 1.94934 25.425C2.18532 25.5037 10.6414 27.7456 10.6414 27.7456C10.6414 27.7456 8.39957 36.1623 8.3209 36.3983C8.24224 36.6736 8.20291 36.9489 8.3209 37.4602C8.4389 37.9715 8.79287 38.2862 9.02886 38.4435C9.26484 38.6008 11.546 40.3707 11.8607 40.6067C12.1753 40.8427 12.6079 41 13.0406 41C13.3552 41 13.7485 40.9213 14.0632 40.7247C13.7485 40.9213 21.536 36.3983 21.536 36.3983V29.7908L14.9678 33.5272L15.951 29.8694C16.0297 29.5941 16.0297 29.3188 15.9904 29.0435C15.951 28.8075 15.9117 28.6895 15.7544 28.3748C15.5971 28.0995 12.49 22.7506 12.49 22.7506C12.372 22.5539 12.2146 22.3966 12.0573 22.2393C11.8607 22.0819 11.6247 21.9246 11.2707 21.846C10.9561 21.728 7.69161 20.8627 7.69161 20.8627L14.1812 17.1263L8.47823 13.8225C8.47823 13.8225 1.79202 17.6769 1.04474 18.1095C0.258124 18.6208 -0.0958521 19.4075 0.0221399 20.1941Z" fill="#81818B"/>
<path d="M33.2959 40.6067C33.2959 40.6067 35.7737 38.7188 36.1277 38.4435C36.4817 38.1682 36.6783 37.8536 36.8357 37.4603C36.9537 37.0276 36.9143 36.6736 36.875 36.4377C36.7963 36.2017 34.5545 27.7456 34.5545 27.7456C34.5545 27.7456 42.9712 25.5037 43.2466 25.4251C43.5219 25.3464 43.7972 25.2678 44.1905 24.8745C44.5445 24.5205 44.7018 24.0878 44.7411 23.7732C44.7805 23.4585 45.1344 20.6267 45.2131 20.2334C45.2917 19.8401 45.2131 19.4075 44.9771 19.0535C44.8198 18.7389 44.5838 18.5029 44.2298 18.3062C44.5445 18.5029 36.757 13.9799 36.757 13.9799L31.0541 17.2836L37.5829 21.0594L33.9252 22.0426C33.6499 22.1213 33.4139 22.2393 33.1779 22.3966C33.0206 22.5146 32.8633 22.6719 32.7453 22.9472C32.588 23.2226 29.4808 28.5715 29.4808 28.5715C29.3628 28.7682 29.2842 28.9648 29.2449 29.2008C29.2055 29.4761 29.2055 29.7514 29.3235 30.0661C29.4415 30.3807 30.3068 33.6452 30.3068 33.6452L23.7779 29.8694V36.3983C23.7779 36.3983 30.4641 40.2527 31.2114 40.6854C31.88 41.1573 32.7059 41.0393 33.2959 40.6067Z" fill="#81818B"/>
</svg>
