<svg width="222" height="42" viewBox="0 0 222 42" fill="none" xmlns="http://www.w3.org/2000/svg">
<path d="M14.6469 17.8791L10.8752 12.6836L5.34418 23.9132H9.11538L11.2112 19.7229L14.6469 23.9132L18.0834 19.7229L20.1784 23.9132H23.9491L18.4185 12.6836L14.6469 17.8791Z" fill="#81818B"/>
<path d="M4.92555 26.8467L2.41156 33.8865H8.44522L14.1442 26.8467H4.92555Z" fill="#81818B"/>
<path d="M23.9801 4.44048C24.1571 4.35109 24.2393 4.21005 24.2393 3.9976C24.2393 3.8094 24.158 3.67734 23.985 3.58167C23.7883 3.47297 23.4276 3.41772 22.9129 3.41772H21.3224V4.59634H22.9919C23.4438 4.59589 23.7766 4.54379 23.9801 4.44048Z" fill="#81818B"/>
<path d="M24.5146 6.16081C24.5146 5.92095 24.4243 5.75701 24.2303 5.64741C24.0147 5.52569 23.6015 5.4646 23.0009 5.4646H21.3224V6.85702H23.1123C24.5146 6.85702 24.5146 6.33329 24.5146 6.16081Z" fill="#81818B"/>
<path d="M10.7081 34.4731L14.6469 38.5794L18.5861 34.4731L14.6469 27.6848L10.7081 34.4731Z" fill="#81818B"/>
<path d="M15.1495 26.8467L20.8485 33.8865H26.8831L24.3691 26.8467H15.1495Z" fill="#81818B"/>
<path d="M0 0V34.8284C0 34.832 0 34.836 0 34.8383V34.9304H0.0076355C0.0309922 35.2951 0.150471 35.6522 0.366969 35.9603C0.74382 36.4939 1.35693 36.8124 2.01137 36.8124H8.00685C8.07243 36.8124 8.13711 36.8088 8.20179 36.8029L13.0474 40.7035C13.4269 41.0997 13.9511 41.3233 14.4996 41.3233C15.048 41.3233 15.5726 41.0997 15.9513 40.7039L20.5763 36.8034C20.641 36.8097 20.7052 36.8128 20.7713 36.8128H26.9801C27.6341 36.8128 28.2472 36.4944 28.6236 35.9607C28.8401 35.6526 28.9596 35.296 28.9834 34.9308H28.9915V34.8387C28.9915 34.8351 28.9915 34.8315 28.9915 34.8288L29 0H0ZM19.8869 2.54947H23.0009C23.7165 2.54947 24.2905 2.66805 24.7069 2.90117C25.1511 3.14956 25.3761 3.49946 25.3761 3.94009C25.3761 4.36635 25.156 4.70547 24.7212 4.95206C24.9791 5.04235 25.1875 5.16856 25.3429 5.32847C25.5769 5.56967 25.6973 5.84995 25.6973 6.16077C25.6973 6.67147 25.4633 7.06764 25.0033 7.33849C24.5681 7.59496 23.9347 7.72522 23.1218 7.72522H19.8878L19.8869 2.54947ZM18.0179 1.3731H19.4786V2.3186H18.0179V1.3731ZM18.4477 2.54947V7.57699H17.0481V2.54947H18.4477ZM15.9553 1.3731H17.416V2.3186H15.9553V1.3731ZM9.95174 2.54947H11.204V5.82614L14.1137 2.59394H15.4397V7.57744H14.1973C14.1937 7.57655 14.1905 7.57744 14.1878 7.57655V4.19836L11.1101 7.56038H9.95174V2.54947ZM3.64499 2.53914H5.00776V4.62597L5.62402 4.62462C5.78167 4.54871 6.05477 4.02453 6.18997 3.76402C6.50483 3.1563 6.83048 2.52881 7.41754 2.51758C7.77597 2.47491 8.53192 2.5095 8.69183 2.51803L8.68554 3.39301L7.51007 3.39705L7.47189 3.40289L7.45931 3.40199C7.33085 3.48553 7.10896 3.91224 6.97511 4.17096C6.82689 4.45753 6.74289 4.75982 6.55334 5.00596C7.57699 5.6357 8.67386 7.28549 8.79603 7.5752H7.06944C6.59197 6.72223 6.02782 5.90026 5.75922 5.50634L5.60336 5.24492H5.00821V7.56756H3.64544L3.64499 2.53914ZM14.6469 8.99591C21.2164 8.99591 26.5471 14.4021 26.5471 21.0637C26.5471 22.6016 26.2583 24.0682 25.7409 25.4219H25.0285C25.5774 24.0789 25.8769 22.6061 25.8769 21.0637C25.8769 14.7776 20.8458 9.67685 14.6473 9.67685C8.44883 9.67685 3.41681 14.7776 3.41681 21.0646C3.41681 22.6075 3.71641 24.0798 4.26529 25.4219H3.55291C3.03547 24.0686 2.74665 22.6016 2.74665 21.0646C2.74665 14.4021 8.07782 8.99591 14.6469 8.99591ZM24.2954 25.4219H4.99923C4.41306 24.0902 4.08742 22.6155 4.08742 21.0646C4.08742 15.1535 8.81849 10.3587 14.6469 10.3587C20.4762 10.3587 25.2068 15.154 25.2068 21.0646C25.2063 22.6155 24.8802 24.0902 24.2954 25.4219ZM20.5656 34.4731L15.9773 28.7947L19.3191 34.5558L14.6469 39.4274L9.97509 34.5571L13.3268 28.7952L8.72776 34.4731H1.58376L4.51682 26.2601H13.9242H15.37H24.7774L27.71 34.4731H20.5656Z" fill="#81818B"/>
<path d="M35.8 28V11.2H39.712L46.648 22.624H44.584L51.376 11.2H55.288L55.336 28H50.944L50.92 17.848H51.664L46.6 26.344H44.488L39.28 17.848H40.168V28H35.8ZM65.3414 28.216C63.8054 28.216 62.4614 27.928 61.3094 27.352C60.1734 26.76 59.2854 25.96 58.6454 24.952C58.0214 23.928 57.7094 22.768 57.7094 21.472C57.7094 20.176 58.0134 19.024 58.6214 18.016C59.2454 16.992 60.1014 16.2 61.1894 15.64C62.2774 15.064 63.5014 14.776 64.8614 14.776C66.1414 14.776 67.3094 15.04 68.3654 15.568C69.4214 16.08 70.2614 16.84 70.8854 17.848C71.5094 18.856 71.8214 20.08 71.8214 21.52C71.8214 21.68 71.8134 21.864 71.7974 22.072C71.7814 22.28 71.7654 22.472 71.7494 22.648H61.4534V20.248H69.3254L67.5974 20.92C67.6134 20.328 67.5014 19.816 67.2614 19.384C67.0374 18.952 66.7174 18.616 66.3014 18.376C65.9014 18.136 65.4294 18.016 64.8854 18.016C64.3414 18.016 63.8614 18.136 63.4454 18.376C63.0454 18.616 62.7334 18.96 62.5094 19.408C62.2854 19.84 62.1734 20.352 62.1734 20.944V21.64C62.1734 22.28 62.3014 22.832 62.5574 23.296C62.8294 23.76 63.2134 24.12 63.7094 24.376C64.2054 24.616 64.7974 24.736 65.4854 24.736C66.1254 24.736 66.6694 24.648 67.1174 24.472C67.5814 24.28 68.0374 23.992 68.4854 23.608L70.8854 26.104C70.2614 26.792 69.4934 27.32 68.5814 27.688C67.6694 28.04 66.5894 28.216 65.3414 28.216ZM76.7134 28V17.608L77.6974 18.616H72.5134V14.992H85.4254V18.616H80.2414L81.2494 17.608V28H76.7134ZM95.3763 28.216C94.2723 28.216 93.3283 27.976 92.5443 27.496C91.7603 27 91.1603 26.264 90.7443 25.288C90.3443 24.296 90.1443 23.032 90.1443 21.496C90.1443 19.944 90.3363 18.68 90.7203 17.704C91.1043 16.712 91.6803 15.976 92.4483 15.496C93.2323 15.016 94.2083 14.776 95.3763 14.776C96.5603 14.776 97.6323 15.056 98.5923 15.616C99.5683 16.16 100.336 16.936 100.896 17.944C101.472 18.936 101.76 20.12 101.76 21.496C101.76 22.872 101.472 24.064 100.896 25.072C100.336 26.08 99.5683 26.856 98.5923 27.4C97.6323 27.944 96.5603 28.216 95.3763 28.216ZM87.1923 32.656V14.992H91.5363V17.2L91.5123 21.496L91.7523 25.816V32.656H87.1923ZM94.4163 24.592C94.9283 24.592 95.3843 24.472 95.7843 24.232C96.2003 23.992 96.5283 23.64 96.7683 23.176C97.0243 22.712 97.1523 22.152 97.1523 21.496C97.1523 20.84 97.0243 20.28 96.7683 19.816C96.5283 19.352 96.2003 19 95.7843 18.76C95.3843 18.52 94.9283 18.4 94.4163 18.4C93.9043 18.4 93.4403 18.52 93.0243 18.76C92.6243 19 92.2963 19.352 92.0403 19.816C91.8003 20.28 91.6803 20.84 91.6803 21.496C91.6803 22.152 91.8003 22.712 92.0403 23.176C92.2963 23.64 92.6243 23.992 93.0243 24.232C93.4403 24.472 93.9043 24.592 94.4163 24.592ZM110.358 28.216C108.934 28.216 107.67 27.928 106.566 27.352C105.462 26.776 104.59 25.984 103.95 24.976C103.326 23.952 103.014 22.784 103.014 21.472C103.014 20.16 103.326 19 103.95 17.992C104.59 16.984 105.462 16.2 106.566 15.64C107.67 15.064 108.934 14.776 110.358 14.776C111.782 14.776 113.046 15.064 114.15 15.64C115.27 16.2 116.142 16.984 116.766 17.992C117.39 19 117.702 20.16 117.702 21.472C117.702 22.784 117.39 23.952 116.766 24.976C116.142 25.984 115.27 26.776 114.15 27.352C113.046 27.928 111.782 28.216 110.358 28.216ZM110.358 24.592C110.886 24.592 111.35 24.472 111.75 24.232C112.166 23.992 112.494 23.64 112.734 23.176C112.974 22.696 113.094 22.128 113.094 21.472C113.094 20.816 112.974 20.264 112.734 19.816C112.494 19.352 112.166 19 111.75 18.76C111.35 18.52 110.886 18.4 110.358 18.4C109.846 18.4 109.382 18.52 108.966 18.76C108.566 19 108.238 19.352 107.982 19.816C107.742 20.264 107.622 20.816 107.622 21.472C107.622 22.128 107.742 22.696 107.982 23.176C108.238 23.64 108.566 23.992 108.966 24.232C109.382 24.472 109.846 24.592 110.358 24.592ZM119.841 28V14.992H133.281V28H128.745V17.632L129.753 18.616H123.393L124.377 17.632V28H119.841ZM142.796 28.216C141.372 28.216 140.108 27.928 139.004 27.352C137.9 26.776 137.028 25.984 136.388 24.976C135.764 23.952 135.452 22.784 135.452 21.472C135.452 20.16 135.764 19 136.388 17.992C137.028 16.984 137.9 16.2 139.004 15.64C140.108 15.064 141.372 14.776 142.796 14.776C144.22 14.776 145.484 15.064 146.588 15.64C147.708 16.2 148.58 16.984 149.204 17.992C149.828 19 150.14 20.16 150.14 21.472C150.14 22.784 149.828 23.952 149.204 24.976C148.58 25.984 147.708 26.776 146.588 27.352C145.484 27.928 144.22 28.216 142.796 28.216ZM142.796 24.592C143.324 24.592 143.788 24.472 144.188 24.232C144.604 23.992 144.932 23.64 145.172 23.176C145.412 22.696 145.532 22.128 145.532 21.472C145.532 20.816 145.412 20.264 145.172 19.816C144.932 19.352 144.604 19 144.188 18.76C143.788 18.52 143.324 18.4 142.796 18.4C142.284 18.4 141.82 18.52 141.404 18.76C141.004 19 140.676 19.352 140.42 19.816C140.18 20.264 140.06 20.816 140.06 21.472C140.06 22.128 140.18 22.696 140.42 23.176C140.676 23.64 141.004 23.992 141.404 24.232C141.82 24.472 142.284 24.592 142.796 24.592ZM150.724 28L150.916 24.28C151.028 24.296 151.132 24.312 151.228 24.328C151.324 24.328 151.412 24.328 151.492 24.328C151.892 24.328 152.204 24.232 152.428 24.04C152.668 23.832 152.844 23.552 152.956 23.2C153.084 22.848 153.172 22.44 153.22 21.976C153.284 21.496 153.324 20.976 153.34 20.416L153.532 14.992H165.292V28H160.732V17.584L161.74 18.616H156.532L157.492 17.536L157.348 20.608C157.3 21.776 157.196 22.84 157.036 23.8C156.892 24.744 156.66 25.552 156.34 26.224C156.02 26.896 155.58 27.416 155.02 27.784C154.476 28.136 153.78 28.312 152.932 28.312C152.628 28.312 152.284 28.28 151.9 28.216C151.532 28.168 151.14 28.096 150.724 28ZM168.356 28V14.992H172.916V28H168.356ZM170.636 13.552C169.804 13.552 169.132 13.32 168.62 12.856C168.108 12.392 167.852 11.816 167.852 11.128C167.852 10.44 168.108 9.864 168.62 9.4C169.132 8.936 169.804 8.704 170.636 8.704C171.468 8.704 172.14 8.928 172.652 9.376C173.164 9.808 173.42 10.368 173.42 11.056C173.42 11.776 173.164 12.376 172.652 12.856C172.156 13.32 171.484 13.552 170.636 13.552ZM178.901 28V17.608L179.885 18.616H174.701V14.992H187.613V18.616H182.429L183.437 17.608V28H178.901ZM195.56 28.216C194.024 28.216 192.68 27.928 191.528 27.352C190.392 26.76 189.504 25.96 188.864 24.952C188.24 23.928 187.928 22.768 187.928 21.472C187.928 20.176 188.232 19.024 188.84 18.016C189.464 16.992 190.32 16.2 191.408 15.64C192.496 15.064 193.72 14.776 195.08 14.776C196.36 14.776 197.528 15.04 198.584 15.568C199.64 16.08 200.48 16.84 201.104 17.848C201.728 18.856 202.04 20.08 202.04 21.52C202.04 21.68 202.032 21.864 202.016 22.072C202 22.28 201.984 22.472 201.968 22.648H191.672V20.248H199.544L197.816 20.92C197.832 20.328 197.72 19.816 197.48 19.384C197.256 18.952 196.936 18.616 196.52 18.376C196.12 18.136 195.648 18.016 195.104 18.016C194.56 18.016 194.08 18.136 193.664 18.376C193.264 18.616 192.952 18.96 192.728 19.408C192.504 19.84 192.392 20.352 192.392 20.944V21.64C192.392 22.28 192.52 22.832 192.776 23.296C193.048 23.76 193.432 24.12 193.928 24.376C194.424 24.616 195.016 24.736 195.704 24.736C196.344 24.736 196.888 24.648 197.336 24.472C197.8 24.28 198.256 23.992 198.704 23.608L201.104 26.104C200.48 26.792 199.712 27.32 198.8 27.688C197.888 28.04 196.808 28.216 195.56 28.216ZM204.45 28V14.992H208.986V19.816H213.666V14.992H218.226V28H213.666V23.44H208.986V28H204.45Z" fill="#81818B"/>
</svg>
