<svg width="160" height="40" viewBox="0 0 160 40" fill="none" xmlns="http://www.w3.org/2000/svg">
<path d="M52.1434 10.1917C52.4658 10.1917 52.775 10.1245 53.0705 10.0037C53.3662 9.88283 53.6215 9.70827 53.8366 9.49344C54.0516 9.2786 54.2262 9.02348 54.3473 8.74151C54.4682 8.45953 54.5354 8.13727 54.5354 7.80159C54.5354 7.46591 54.4682 7.15708 54.3473 6.86168C54.2262 6.5797 54.0516 6.32458 53.8366 6.10975C53.6215 5.89491 53.3662 5.72036 53.0705 5.59951C52.775 5.47867 52.4658 5.41153 52.1434 5.41153H48.3672V16.6905C48.3672 17.0262 48.2327 17.3081 47.9505 17.5499C47.6683 17.7781 47.3324 17.8989 46.9426 17.8989C46.5529 17.8989 46.217 17.7781 45.9347 17.5499C45.6526 17.3216 45.5181 17.0262 45.5181 16.6905V3.85396C45.5181 3.51828 45.6526 3.23631 45.9347 2.99462C46.217 2.76635 46.5529 2.64551 46.9426 2.64551H52.1568C52.8959 2.64551 53.5812 2.77977 54.2262 3.03489C54.8714 3.29001 55.4358 3.65255 55.9195 4.10908C56.4033 4.56561 56.7796 5.1027 57.0618 5.73378C57.3305 6.36487 57.4783 7.04966 57.4783 7.78816C57.4783 8.39239 57.3843 8.95634 57.1827 9.49344C56.9811 10.0305 56.6989 10.5139 56.3495 10.9436C56.0002 11.3733 55.5836 11.7358 55.0998 12.0446C54.6294 12.3535 54.1053 12.5818 53.5678 12.7295L56.4301 15.9117C56.6183 16.1937 56.6586 16.5025 56.5646 16.8516C56.4704 17.2007 56.2555 17.4827 55.9329 17.711C55.6104 17.9258 55.2744 18.0064 54.9117 17.9661C54.5488 17.9258 54.28 17.7646 54.0919 17.4827L49.9395 12.3803C49.7647 12.1251 49.6841 11.8432 49.6841 11.5209C49.6841 11.1316 49.805 10.8094 50.0335 10.5407C50.2619 10.2857 50.5576 10.1514 50.8935 10.1514H52.1434V10.1917Z" fill="#81818B"/>
<path d="M62.3426 11.9506C62.3426 11.6015 62.4502 11.3061 62.6518 11.0778C62.8533 10.8496 63.1087 10.7287 63.4043 10.7287H67.8658C67.624 10.0171 67.2208 9.45314 66.6429 9.03689C66.0651 8.62064 65.4066 8.41923 64.6676 8.41923C64.1972 8.41923 63.7537 8.51322 63.3505 8.7012C62.9474 8.88919 62.5846 9.14431 62.2755 9.45314C61.9664 9.76196 61.7245 10.1379 61.5364 10.5541C61.3617 10.9704 61.2676 11.4269 61.2676 11.8969C61.2676 12.3668 61.3617 12.8234 61.5364 13.2531C61.7111 13.6827 61.9664 14.0722 62.2755 14.4078C62.5846 14.7435 62.9608 15.0121 63.3774 15.2134C63.794 15.4148 64.2644 15.5089 64.7616 15.5089C65.2723 15.5089 65.8098 15.4148 66.3608 15.2403C66.9118 15.0657 67.3687 14.8106 67.718 14.4884C67.9197 14.2601 68.175 14.1527 68.4975 14.1527C68.82 14.1661 69.1157 14.2869 69.3844 14.5287C69.6532 14.7569 69.8144 15.0255 69.8547 15.3478C69.8951 15.67 69.8279 15.9385 69.6398 16.1667C69.0216 16.771 68.2824 17.241 67.4224 17.5633C66.5623 17.8855 65.6754 18.0601 64.7616 18.0601C63.8478 18.0601 63.0012 17.9124 62.2217 17.6036C61.4423 17.2946 60.7569 16.865 60.1791 16.3011C59.6012 15.7505 59.1443 15.0926 58.8084 14.3407C58.4724 13.5888 58.3112 12.7697 58.3112 11.8835C58.3112 10.9973 58.4724 10.1782 58.8084 9.42628C59.1443 8.67435 59.6012 8.02984 60.1656 7.47932C60.73 6.9288 61.402 6.49913 62.1814 6.1903C62.9474 5.88147 63.7806 5.73376 64.6676 5.73376C65.5276 5.73376 66.3339 5.89489 67.0864 6.21715C67.839 6.53941 68.511 6.96908 69.0754 7.5196C69.6398 8.07012 70.0967 8.71464 70.4192 9.46656C70.7417 10.2185 70.9164 11.0242 70.9164 11.8835C70.9164 12.0446 70.8761 12.2057 70.8089 12.3668C70.7283 12.528 70.6342 12.6622 70.4998 12.7832C70.3654 12.904 70.2176 12.9979 70.0429 13.0785C69.8816 13.159 69.6935 13.1859 69.4919 13.1859H63.4043C63.1087 13.1859 62.8533 13.0651 62.6518 12.8234C62.4502 12.5951 62.3426 12.2998 62.3426 11.9506Z" fill="#81818B"/>
<path d="M79.7319 8.78213C79.3422 8.59415 78.8987 8.44645 78.4149 8.33902C77.9312 8.23161 77.4339 8.1779 76.9636 8.1779C76.3454 8.1779 75.8885 8.27189 75.5795 8.4733C75.2703 8.66128 75.0957 8.88954 75.0419 9.13124C74.9882 9.37293 75.0554 9.61462 75.2435 9.82945C75.4181 10.0443 75.7004 10.192 76.0632 10.2457L78.5627 10.6217C78.9659 10.6888 79.3691 10.8097 79.7856 10.9843C80.1888 11.1587 80.5651 11.4005 80.901 11.6958C81.237 11.9912 81.5058 12.3672 81.7208 12.8103C81.9223 13.2534 82.0299 13.7771 82.0299 14.3813C82.0299 14.9587 81.8955 15.469 81.6267 15.9255C81.3579 16.382 80.9952 16.7713 80.5248 17.0803C80.0679 17.3891 79.5303 17.6307 78.9122 17.8053C78.3075 17.9664 77.6489 18.0604 76.977 18.0604C76.1304 18.0604 75.3375 17.9664 74.585 17.7784C73.8324 17.5904 73.1605 17.3353 72.5558 16.9996C72.3139 16.8519 72.1526 16.6236 72.0854 16.3014C72.0182 15.9926 72.0585 15.6703 72.2198 15.3615C72.3945 15.0392 72.6364 14.8245 72.9321 14.7035C73.2277 14.5827 73.5234 14.5961 73.8055 14.7438C74.2356 14.9856 74.7194 15.1869 75.2569 15.3346C75.7944 15.4824 76.3723 15.5764 76.977 15.6032C77.5414 15.6434 77.9983 15.5629 78.3612 15.348C78.7105 15.1467 78.9525 14.905 79.06 14.623C79.1675 14.3545 79.1406 14.0725 78.9659 13.8039C78.8047 13.5354 78.4687 13.3474 77.9715 13.2399L75.5122 12.8775C74.5447 12.7298 73.7652 12.3672 73.1739 11.7765C72.5826 11.1856 72.2869 10.3934 72.2869 9.38635C72.2869 8.83583 72.408 8.33902 72.6364 7.8825C72.8649 7.42596 73.1874 7.03658 73.604 6.71432C74.0072 6.39207 74.5044 6.15037 75.0822 5.97582C75.6601 5.80127 76.2917 5.7207 76.977 5.7207C77.6759 5.7207 78.3478 5.80127 78.9794 5.94896C79.6109 6.09666 80.2291 6.32493 80.7935 6.6069C81.0355 6.71432 81.1967 6.91573 81.2907 7.21113C81.3714 7.50653 81.3445 7.80193 81.1967 8.11076C81.0489 8.41959 80.8338 8.63443 80.5651 8.7687C80.2694 8.9164 80.0007 8.9164 79.7319 8.78213Z" fill="#81818B"/>
<path d="M88.0643 6.24572C88.3735 6.05773 88.7362 5.92347 89.1663 5.85633C89.5963 5.78919 90.0532 5.7489 90.5505 5.7489C91.3567 5.7489 92.1093 5.8966 92.835 6.20544C93.5472 6.51427 94.1788 6.94394 94.7029 7.50789C95.227 8.05841 95.657 8.71635 95.9662 9.46828C96.2752 10.2202 96.423 11.0392 96.423 11.9255C96.423 12.8117 96.2752 13.6307 95.9662 14.3826C95.657 15.1346 95.2404 15.7791 94.7029 16.3296C94.1788 16.8802 93.5472 17.3098 92.835 17.6186C92.1228 17.9274 91.3567 18.0751 90.5505 18.0751C89.6366 18.0751 88.8572 17.8738 88.2121 17.4709C87.5671 17.0682 87.043 16.5982 86.6398 16.0476H86.5995V20.1296C86.5995 20.4653 86.4651 20.7472 86.1964 20.9889C85.9276 21.2172 85.6051 21.338 85.2154 21.338C84.8257 21.338 84.4898 21.2172 84.2209 20.9889C83.9522 20.7607 83.8043 20.4653 83.8043 20.1296V7.13192C83.8043 6.78281 83.9387 6.50084 84.2209 6.27257C84.4898 6.04431 84.8257 5.93689 85.2154 5.93689C85.6051 5.93689 85.9276 6.04431 86.1964 6.27257C86.4651 6.50084 86.5995 6.78281 86.5995 7.13192V11.9121C86.5995 12.382 86.6802 12.8251 86.8549 13.2414C87.0296 13.6576 87.2715 14.0202 87.5805 14.329C87.8897 14.6378 88.2524 14.8794 88.669 15.0674C89.0857 15.242 89.5291 15.336 90.0129 15.336C90.4833 15.336 90.9267 15.242 91.3433 15.0674C91.7599 14.8929 92.1228 14.6378 92.4452 14.329C92.7544 14.0202 93.0097 13.6576 93.1843 13.2414C93.3591 12.8251 93.4531 12.382 93.4531 11.9121C93.4531 11.4421 93.3591 10.999 93.1843 10.5827C93.0097 10.1665 92.7544 9.80396 92.4452 9.4817C92.1362 9.17287 91.7599 8.91775 91.3433 8.7432C90.9267 8.56865 90.4833 8.47465 90.0129 8.47465C89.6769 8.47465 89.3679 8.51493 89.0722 8.5955C88.8034 8.70291 88.5481 8.67606 88.3063 8.50151C88.0643 8.34038 87.8762 8.11211 87.7284 7.84357C87.5805 7.53474 87.5402 7.22591 87.594 6.91709C87.6746 6.62168 87.8225 6.39341 88.0643 6.24572Z" fill="#81818B"/>
<path d="M100.992 12.7568C100.992 13.1463 101.046 13.5088 101.154 13.8445C101.261 14.1801 101.422 14.4622 101.637 14.7038C101.852 14.9321 102.121 15.1067 102.444 15.2275C102.766 15.3349 103.129 15.3752 103.546 15.3349L103.922 15.2946C104.191 15.2678 104.433 15.3483 104.662 15.5498C104.889 15.7512 105.037 16.0063 105.105 16.3285C105.171 16.6642 105.131 16.9596 105.01 17.2281C104.876 17.4833 104.675 17.6713 104.406 17.7652C103.922 17.9667 103.344 18.0606 102.672 18.0606C101.987 18.0606 101.369 17.9398 100.818 17.6981C100.267 17.4564 99.7963 17.1207 99.3932 16.6911C99.0035 16.2613 98.6943 15.7378 98.4794 15.1335C98.2644 14.5292 98.1568 13.8445 98.1568 13.1194V7.13082C98.1568 6.79514 98.2913 6.51316 98.5734 6.27147C98.8422 6.04321 99.1781 5.92236 99.5679 5.92236C99.9576 5.92236 100.294 6.04321 100.562 6.27147C100.831 6.49974 100.979 6.79514 100.979 7.13082V12.7568H100.992ZM106.126 7.13082C106.126 6.79514 106.26 6.51316 106.543 6.27147C106.811 6.04321 107.147 5.92236 107.536 5.92236C107.926 5.92236 108.263 6.04321 108.531 6.27147C108.8 6.49974 108.948 6.79514 108.948 7.13082V16.6777C108.948 17.0133 108.813 17.2953 108.531 17.5369C108.263 17.7652 107.926 17.8861 107.536 17.8861C107.147 17.8861 106.811 17.7652 106.543 17.5369C106.274 17.3087 106.126 17.0133 106.126 16.6777V7.13082Z" fill="#81818B"/>
<path d="M115.586 6.24574C115.895 6.05775 116.257 5.92348 116.688 5.85634C117.118 5.7892 117.574 5.74893 118.072 5.74893C118.878 5.74893 119.631 5.89663 120.357 6.20545C121.069 6.51428 121.7 6.94395 122.225 7.5079C122.749 8.05842 123.178 8.71636 123.487 9.46829C123.797 10.2202 123.945 11.0393 123.945 11.9255C123.945 12.8117 123.797 13.6308 123.487 14.3827C123.178 15.1346 122.762 15.7791 122.225 16.3297C121.7 16.8802 121.069 17.3099 120.357 17.6187C119.644 17.9275 118.878 18.0752 118.072 18.0752C117.158 18.0752 116.378 17.8738 115.733 17.471C115.088 17.0681 114.564 16.5982 114.161 16.0477H114.121V16.6922C114.121 17.0279 113.987 17.3099 113.718 17.5515C113.449 17.7798 113.126 17.9006 112.736 17.9006C112.347 17.9006 112.011 17.7798 111.743 17.5515C111.474 17.3233 111.326 17.0279 111.326 16.6922V3.69455C111.326 3.34543 111.46 3.06346 111.743 2.83519C112.011 2.60693 112.347 2.49951 112.736 2.49951C113.126 2.49951 113.449 2.60693 113.718 2.83519C113.987 3.06346 114.121 3.34543 114.121 3.69455V11.912C114.121 12.3821 114.202 12.8251 114.376 13.2413C114.551 13.6577 114.793 14.0201 115.101 14.3289C115.411 14.6378 115.774 14.8795 116.191 15.0675C116.607 15.2421 117.05 15.336 117.534 15.336C118.005 15.336 118.448 15.2421 118.865 15.0675C119.281 14.8929 119.644 14.6378 119.967 14.3289C120.276 14.0201 120.531 13.6577 120.706 13.2413C120.881 12.8251 120.974 12.3821 120.974 11.912C120.974 11.4421 120.881 10.999 120.706 10.5828C120.531 10.1665 120.276 9.80397 119.967 9.48172C119.657 9.17289 119.281 8.91777 118.865 8.74321C118.448 8.56866 118.005 8.47467 117.534 8.47467C117.198 8.47467 116.889 8.51495 116.594 8.59551C116.325 8.70294 116.07 8.67608 115.828 8.50152C115.586 8.34039 115.398 8.11214 115.25 7.84358C115.101 7.53475 115.061 7.22593 115.116 6.9171C115.196 6.6217 115.344 6.39344 115.586 6.24574Z" fill="#81818B"/>
<path d="M125.786 3.69235C125.786 3.35667 125.92 3.07469 126.202 2.833C126.471 2.60474 126.807 2.48389 127.197 2.48389C127.587 2.48389 127.922 2.60474 128.192 2.833C128.461 3.06126 128.608 3.35667 128.608 3.69235V16.6766C128.608 17.0122 128.474 17.2942 128.192 17.5359C127.922 17.7641 127.587 17.8851 127.197 17.8851C126.807 17.8851 126.471 17.7641 126.202 17.5359C125.933 17.3076 125.786 17.0122 125.786 16.6766V3.69235Z" fill="#81818B"/>
<path d="M130.812 3.81441C130.812 3.3713 130.96 2.99534 131.269 2.68651C131.578 2.37768 131.955 2.22998 132.398 2.22998C132.841 2.22998 133.217 2.37768 133.527 2.68651C133.836 2.99534 133.984 3.3713 133.984 3.81441C133.984 4.25751 133.836 4.63348 133.527 4.9423C133.217 5.25113 132.841 5.39883 132.398 5.39883C131.955 5.39883 131.578 5.25113 131.269 4.9423C130.96 4.63348 130.812 4.25751 130.812 3.81441ZM130.987 7.9366C130.987 7.60091 131.121 7.31893 131.403 7.07724C131.672 6.84898 132.008 6.72813 132.398 6.72813C132.788 6.72813 133.123 6.84898 133.393 7.07724C133.662 7.30551 133.809 7.60091 133.809 7.9366V16.6778C133.809 17.0135 133.675 17.2954 133.393 17.5372C133.123 17.7654 132.788 17.8862 132.398 17.8862C132.008 17.8862 131.672 17.7654 131.403 17.5372C131.134 17.3089 130.987 17.0135 130.987 16.6778V7.9366Z" fill="#81818B"/>
<path d="M136.2 3.69235C136.2 3.35667 136.334 3.07469 136.616 2.833C136.885 2.60474 137.222 2.48389 137.611 2.48389C138.001 2.48389 138.336 2.60474 138.605 2.833C138.874 3.06126 139.022 3.35667 139.022 3.69235V16.6766C139.022 17.0122 138.887 17.2942 138.605 17.5359C138.336 17.7641 138.001 17.885 137.611 17.885C137.222 17.885 136.885 17.7641 136.616 17.5359C136.348 17.3076 136.2 17.0122 136.2 16.6766V3.69235ZM146.521 15.7367C146.735 15.9649 146.816 16.2469 146.776 16.596C146.722 16.9451 146.548 17.2539 146.238 17.5225C145.956 17.7507 145.647 17.8716 145.297 17.8984C144.962 17.9118 144.68 17.791 144.465 17.5225L140.285 12.9437C140.016 12.6349 139.882 12.2858 139.882 11.8965C139.882 11.507 140.016 11.1579 140.285 10.8491L144.425 6.28381C144.639 6.01527 144.921 5.89443 145.257 5.90786C145.594 5.92128 145.916 6.05556 146.198 6.28381C146.507 6.55237 146.682 6.86119 146.735 7.2103C146.776 7.55942 146.695 7.84138 146.48 8.06965L143.08 11.883L146.521 15.7367Z" fill="#81818B"/>
<path d="M155.753 17.5633C155.443 17.7513 155.08 17.8855 154.65 17.9526C154.22 18.0198 153.763 18.0601 153.267 18.0601C152.459 18.0601 151.708 17.9124 150.995 17.6036C150.283 17.2946 149.665 16.865 149.141 16.3011C148.616 15.7505 148.187 15.0926 147.878 14.3407C147.568 13.5888 147.421 12.7697 147.421 11.8835C147.421 10.9973 147.568 10.1782 147.878 9.42628C148.187 8.67435 148.603 8.02984 149.141 7.47932C149.665 6.9288 150.296 6.49913 150.995 6.1903C151.708 5.88147 152.459 5.73376 153.267 5.73376C153.723 5.73376 154.139 5.78748 154.529 5.89489C154.919 6.00232 155.269 6.15001 155.591 6.338C155.914 6.52598 156.209 6.74082 156.465 6.99594C156.72 7.23763 156.962 7.50618 157.163 7.77472H157.204V7.13021C157.204 6.79452 157.338 6.51255 157.607 6.27086C157.876 6.0426 158.198 5.92175 158.588 5.92175C158.977 5.92175 159.314 6.0426 159.583 6.27086C159.851 6.49913 159.999 6.79452 159.999 7.13021V16.677C159.999 17.0261 159.865 17.3081 159.583 17.5364C159.314 17.7647 158.977 17.8721 158.588 17.8721C158.198 17.8721 157.876 17.7647 157.607 17.5364C157.338 17.3081 157.204 17.0261 157.204 16.677V11.8969C157.204 11.4269 157.123 10.9839 156.949 10.5676C156.773 10.1514 156.532 9.78882 156.223 9.47999C155.914 9.17116 155.551 8.92947 155.134 8.74149C154.718 8.56693 154.274 8.47294 153.791 8.47294C153.32 8.47294 152.877 8.56693 152.459 8.74149C152.043 8.91604 151.681 9.17116 151.371 9.47999C151.063 9.78882 150.821 10.1514 150.633 10.5676C150.457 10.9839 150.363 11.4269 150.363 11.8969C150.363 12.3668 150.457 12.8099 150.633 13.2397C150.807 13.6559 151.063 14.0319 151.371 14.3407C151.681 14.6495 152.043 14.8911 152.459 15.0791C152.877 15.2537 153.32 15.3478 153.791 15.3478C154.113 15.3478 154.422 15.3075 154.731 15.2268C155 15.1195 155.255 15.1463 155.497 15.3209C155.738 15.482 155.927 15.7102 156.075 15.9788C156.223 16.2877 156.263 16.5965 156.209 16.9053C156.143 17.1873 155.994 17.4156 155.753 17.5633Z" fill="#81818B"/>
<path d="M51.8337 31.0317C52.1562 31.0317 52.4654 30.9646 52.761 30.8437C53.0567 30.7229 53.3119 30.5484 53.527 30.3335C53.742 30.1187 53.9167 29.8635 54.0377 29.5816C54.1586 29.2996 54.2258 28.9774 54.2258 28.6417C54.2258 28.306 54.1586 27.9972 54.0377 27.7018C53.9167 27.4198 53.742 27.1647 53.527 26.9498C53.3119 26.735 53.0567 26.5605 52.761 26.4396C52.4654 26.3187 52.1562 26.2516 51.8337 26.2516H48.0576V37.5306C48.0576 37.8662 47.9231 38.1483 47.641 38.3899C47.3587 38.6182 47.0228 38.739 46.6331 38.739C46.2433 38.739 45.9074 38.6182 45.6252 38.3899C45.343 38.1617 45.2086 37.8662 45.2086 37.5306V24.7074C45.2086 24.3718 45.343 24.0898 45.6252 23.8482C45.9074 23.6198 46.2433 23.499 46.6331 23.499H51.8471C52.5863 23.499 53.2716 23.6333 53.9167 23.8885C54.5617 24.1435 55.1262 24.5061 55.6099 24.9626C56.0937 25.4191 56.47 25.9563 56.7523 26.5873C57.021 27.2184 57.1688 27.9032 57.1688 28.6417C57.1688 29.3802 57.0344 30.065 56.7523 30.696C56.4834 31.3271 56.0937 31.8643 55.6099 32.3208C55.1262 32.7773 54.5617 33.1398 53.9167 33.3949C53.2716 33.6501 52.5863 33.7844 51.8471 33.7844H50.463C50.127 33.7844 49.8449 33.6501 49.6029 33.3815C49.3745 33.113 49.2536 32.7907 49.2536 32.4014C49.2536 32.0119 49.3745 31.6897 49.6029 31.4212C49.8314 31.166 50.127 31.0317 50.463 31.0317H51.8337Z" fill="#81818B"/>
<path d="M66.7095 38.403C66.4004 38.591 66.0376 38.7253 65.6075 38.7925C65.1775 38.8596 64.7206 38.8999 64.2233 38.8999C63.4171 38.8999 62.6645 38.7522 61.9522 38.4434C61.24 38.1345 60.6219 37.7049 60.0978 37.1409C59.5737 36.5904 59.1436 35.9325 58.8345 35.1805C58.5255 34.4286 58.3777 33.6095 58.3777 32.7234C58.3777 31.8371 58.5255 31.018 58.8345 30.2661C59.1436 29.5142 59.5602 28.8697 60.0978 28.3191C60.6219 27.7687 61.2535 27.3389 61.9522 27.0301C62.6645 26.7213 63.4171 26.5736 64.2233 26.5736C64.6802 26.5736 65.0969 26.6274 65.4866 26.7347C65.8762 26.8421 66.2257 26.9898 66.5482 27.1778C66.8707 27.3658 67.1664 27.5807 67.4217 27.8358C67.6771 28.0775 67.9189 28.346 68.1204 28.6145H68.1608V27.97C68.1608 27.6343 68.2952 27.3524 68.5639 27.1107C68.8328 26.8824 69.1552 26.7616 69.545 26.7616C69.9347 26.7616 70.2706 26.8824 70.5394 27.1107C70.8081 27.3389 70.956 27.6343 70.956 27.97V37.5169C70.956 37.866 70.8216 38.148 70.5394 38.3762C70.2706 38.6045 69.9347 38.7119 69.545 38.7119C69.1552 38.7119 68.8328 38.6045 68.5639 38.3762C68.2952 38.148 68.1608 37.866 68.1608 37.5169V32.7368C68.1608 32.2668 68.0801 31.8237 67.9055 31.4075C67.7308 30.9911 67.4889 30.6287 67.1798 30.3199C66.8707 30.011 66.5078 29.7693 66.0913 29.5813C65.6747 29.4067 65.2312 29.3128 64.7474 29.3128C64.2771 29.3128 63.8337 29.4067 63.4171 29.5813C63.0005 29.7559 62.6376 30.011 62.3286 30.3199C62.0194 30.6287 61.7776 30.9911 61.5894 31.4075C61.4147 31.8237 61.3207 32.2668 61.3207 32.7368C61.3207 33.2067 61.4147 33.6498 61.5894 34.0795C61.7641 34.4958 62.0194 34.8717 62.3286 35.1805C62.6376 35.4893 63.0005 35.731 63.4171 35.919C63.8337 36.0936 64.2771 36.1876 64.7474 36.1876C65.07 36.1876 65.379 36.1472 65.6881 36.0667C65.9569 35.9594 66.2122 35.9861 66.4541 36.1607C66.696 36.3218 66.8841 36.5501 67.0319 36.8186C67.1798 37.1275 67.2201 37.4363 67.1664 37.7451C67.0992 38.0271 66.9513 38.2554 66.7095 38.403Z" fill="#81818B"/>
<path d="M73.7107 27.9835C73.7107 27.6478 73.8451 27.3658 74.1272 27.1242C74.396 26.8959 74.7319 26.775 75.1217 26.775C75.5114 26.775 75.8474 26.8959 76.1161 27.1242C76.385 27.3524 76.5327 27.6478 76.5327 27.9835V37.5303C76.5327 37.866 76.3984 38.148 76.1161 38.3896C75.8474 38.6179 75.5114 38.7387 75.1217 38.7387C74.7319 38.7387 74.396 38.6179 74.1272 38.3896C73.8585 38.1614 73.7107 37.866 73.7107 37.5303V27.9835ZM80.7523 26.5736C80.9002 26.5736 81.048 26.6139 81.1958 26.681C81.3437 26.7482 81.4781 26.8556 81.5856 26.9765C81.6931 27.0973 81.7871 27.245 81.8544 27.4061C81.9216 27.5673 81.9484 27.7418 81.935 27.9164C81.9081 28.2654 81.7871 28.5609 81.5587 28.8025C81.3303 29.0443 81.0749 29.1517 80.7928 29.1248C80.5239 29.1248 80.2955 29.1517 80.1073 29.2188C79.9192 29.2725 79.758 29.4202 79.6235 29.635C79.4892 29.8767 79.2742 30.0378 78.9651 30.105C78.6695 30.1722 78.3603 30.1453 78.0513 29.9976C77.7287 29.8499 77.5272 29.635 77.4331 29.3397C77.339 29.0577 77.3256 28.7757 77.3927 28.5071C77.5406 27.8492 77.9303 27.3658 78.5484 27.057C79.1667 26.7347 79.9058 26.5736 80.7523 26.5736Z" fill="#81818B"/>
<path d="M83.7096 24.5473C83.7096 24.2116 83.844 23.9296 84.1262 23.688C84.3949 23.4597 84.7309 23.3389 85.1206 23.3389C85.5103 23.3389 85.8463 23.4597 86.115 23.688C86.3839 23.9162 86.5316 24.2116 86.5316 24.5473V37.5315C86.5316 37.8672 86.3973 38.1491 86.115 38.3909C85.8463 38.6191 85.5103 38.74 85.1206 38.74C84.7309 38.74 84.3949 38.6191 84.1262 38.3909C83.8574 38.1626 83.7096 37.8672 83.7096 37.5315V24.5473ZM94.0169 36.5782C94.2319 36.8065 94.3125 37.0884 94.2722 37.4375C94.2184 37.7867 94.0437 38.0955 93.7346 38.364C93.4525 38.5923 93.1433 38.7131 92.794 38.74C92.458 38.7534 92.1759 38.6325 91.9608 38.364L87.7814 33.7853C87.5127 33.4764 87.3783 33.1274 87.3783 32.7379C87.3783 32.3486 87.5127 31.9995 87.7814 31.6907L91.9205 27.1253C92.1354 26.8568 92.4177 26.736 92.7537 26.7493C93.0896 26.7628 93.4122 26.8971 93.6943 27.1253C94.0034 27.3938 94.1781 27.7027 94.2319 28.0518C94.2722 28.4009 94.1915 28.6829 93.9766 28.9112L90.5767 32.7245L94.0169 36.5782Z" fill="#81818B"/>
<path d="M29.1369 23.5918C26.5702 27.9423 22.1489 30.7352 17.1633 31.2186V38.4156C17.1633 39.2883 16.451 40 15.5775 40C14.704 40 13.9918 39.2883 13.9918 38.4156V16.3679C13.9918 15.4952 14.704 14.7835 15.5775 14.7835C16.451 14.7835 17.1633 15.4952 17.1633 16.3679V20.8526C18.8968 20.3425 20.2944 19.0131 20.8722 17.2407C21.141 16.4082 22.028 15.9517 22.8611 16.2202C23.6944 16.4888 24.1512 17.375 23.8825 18.2075C22.8746 21.2958 20.2809 23.5247 17.1633 24.0886V28.0363C21.0201 27.5664 24.42 25.3642 26.4089 21.9805C29.9029 16.0456 27.9274 8.37868 21.9877 4.88758C16.0479 1.39648 8.37451 3.3703 4.88052 9.30517C1.88375 14.3807 2.87819 20.9467 7.25912 24.8943C7.90416 25.485 7.95792 26.4787 7.38007 27.1232C6.78878 27.7677 5.79434 27.8214 5.14929 27.2307C2.51535 24.854 0.754923 21.5912 0.19051 18.0732C-0.373905 14.5015 0.324894 10.809 2.16596 7.68046C6.54688 0.268584 16.1554 -2.21547 23.6002 2.16184C31.0317 6.55256 33.5178 16.1531 29.1369 23.5918Z" fill="#81818B"/>
</svg>
