<svg width="169" height="169" viewBox="0 0 169 169" fill="none" xmlns="http://www.w3.org/2000/svg">
<g filter="url(#filter0_dd_4_410)">
<path d="M9 86C9 43.4741 43.4741 9 86 9V9C128.526 9 163 43.4741 163 86V86C163 128.526 128.526 163 86 163V163C43.4741 163 9 128.526 9 86V86Z" fill="url(#paint0_linear_4_410)"/>
</g>
<g filter="url(#filter1_ddii_4_410)">
<path d="M28.9098 86.4278C28.9098 54.6615 54.6615 28.9098 86.4277 28.9098V28.9098C118.194 28.9098 143.946 54.6615 143.946 86.4278V86.4278C143.946 118.194 118.194 143.946 86.4277 143.946V143.946C54.6615 143.946 28.9098 118.194 28.9098 86.4278V86.4278Z" fill="#272729"/>
</g>
<path d="M119.776 65.5493C119.776 74.4367 112.572 81.6412 103.684 81.6412L87.5925 81.6412L87.5925 65.5493C87.5925 56.662 94.7971 49.4574 103.684 49.4574C112.572 49.4574 119.776 56.662 119.776 65.5493Z" fill="#FF6D35"/>
<path d="M103.684 120.249C94.7971 120.249 87.5925 113.044 87.5925 104.157L87.5925 88.0648L103.684 88.0648C112.572 88.0648 119.776 95.2694 119.776 104.157C119.776 113.044 112.572 120.249 103.684 120.249Z" fill="#FFCD1D"/>
<path d="M51.2572 83.0655C51.2572 65.2071 64.6371 50.7303 81.1422 50.7303L81.1422 103.528C81.1422 112.457 74.4522 119.696 66.1994 119.696C57.947 119.696 51.2572 112.457 51.2572 103.528L51.2572 83.0655Z" fill="#3D96F4"/>
<defs>
<filter id="filter0_dd_4_410" x="0" y="0" width="169" height="169" filterUnits="userSpaceOnUse" color-interpolation-filters="sRGB">
<feFlood flood-opacity="0" result="BackgroundImageFix"/>
<feColorMatrix in="SourceAlpha" type="matrix" values="0 0 0 0 0 0 0 0 0 0 0 0 0 0 0 0 0 0 127 0" result="hardAlpha"/>
<feOffset dx="-3" dy="-3"/>
<feGaussianBlur stdDeviation="3"/>
<feComposite in2="hardAlpha" operator="out"/>
<feColorMatrix type="matrix" values="0 0 0 0 0 0 0 0 0 0 0 0 0 0 0 0 0 0 0.25 0"/>
<feBlend mode="normal" in2="BackgroundImageFix" result="effect1_dropShadow_4_410"/>
<feColorMatrix in="SourceAlpha" type="matrix" values="0 0 0 0 0 0 0 0 0 0 0 0 0 0 0 0 0 0 127 0" result="hardAlpha"/>
<feOffset dx="3" dy="3"/>
<feGaussianBlur stdDeviation="1.5"/>
<feComposite in2="hardAlpha" operator="out"/>
<feColorMatrix type="matrix" values="0 0 0 0 0 0 0 0 0 0 0 0 0 0 0 0 0 0 0.25 0"/>
<feBlend mode="normal" in2="effect1_dropShadow_4_410" result="effect2_dropShadow_4_410"/>
<feBlend mode="normal" in="SourceGraphic" in2="effect2_dropShadow_4_410" result="shape"/>
</filter>
<filter id="filter1_ddii_4_410" x="13.9098" y="13.9098" width="139.036" height="139.036" filterUnits="userSpaceOnUse" color-interpolation-filters="sRGB">
<feFlood flood-opacity="0" result="BackgroundImageFix"/>
<feColorMatrix in="SourceAlpha" type="matrix" values="0 0 0 0 0 0 0 0 0 0 0 0 0 0 0 0 0 0 127 0" result="hardAlpha"/>
<feOffset dx="-3" dy="-3"/>
<feGaussianBlur stdDeviation="6"/>
<feComposite in2="hardAlpha" operator="out"/>
<feColorMatrix type="matrix" values="0 0 0 0 0.541667 0 0 0 0 0.537153 0 0 0 0 0.537153 0 0 0 0.25 0"/>
<feBlend mode="normal" in2="BackgroundImageFix" result="effect1_dropShadow_4_410"/>
<feColorMatrix in="SourceAlpha" type="matrix" values="0 0 0 0 0 0 0 0 0 0 0 0 0 0 0 0 0 0 127 0" result="hardAlpha"/>
<feOffset dx="1" dy="1"/>
<feGaussianBlur stdDeviation="1.5"/>
<feComposite in2="hardAlpha" operator="out"/>
<feColorMatrix type="matrix" values="0 0 0 0 0.541176 0 0 0 0 0.537255 0 0 0 0 0.537255 0 0 0 0.25 0"/>
<feBlend mode="normal" in2="effect1_dropShadow_4_410" result="effect2_dropShadow_4_410"/>
<feBlend mode="normal" in="SourceGraphic" in2="effect2_dropShadow_4_410" result="shape"/>
<feColorMatrix in="SourceAlpha" type="matrix" values="0 0 0 0 0 0 0 0 0 0 0 0 0 0 0 0 0 0 127 0" result="hardAlpha"/>
<feOffset dx="-6" dy="-6"/>
<feGaussianBlur stdDeviation="6"/>
<feComposite in2="hardAlpha" operator="arithmetic" k2="-1" k3="1"/>
<feColorMatrix type="matrix" values="0 0 0 0 0 0 0 0 0 0 0 0 0 0 0 0 0 0 0.25 0"/>
<feBlend mode="normal" in2="shape" result="effect3_innerShadow_4_410"/>
<feColorMatrix in="SourceAlpha" type="matrix" values="0 0 0 0 0 0 0 0 0 0 0 0 0 0 0 0 0 0 127 0" result="hardAlpha"/>
<feOffset dx="3" dy="3"/>
<feGaussianBlur stdDeviation="3"/>
<feComposite in2="hardAlpha" operator="arithmetic" k2="-1" k3="1"/>
<feColorMatrix type="matrix" values="0 0 0 0 0 0 0 0 0 0 0 0 0 0 0 0 0 0 0.25 0"/>
<feBlend mode="normal" in2="effect3_innerShadow_4_410" result="effect4_innerShadow_4_410"/>
</filter>
<linearGradient id="paint0_linear_4_410" x1="86" y1="268.5" x2="84.7377" y2="9" gradientUnits="userSpaceOnUse">
<stop stop-color="#0D0D11"/>
<stop offset="0.9999" stop-color="#3D3D41"/>
<stop offset="1" stop-color="#3A3A3A"/>
<stop offset="1" stop-color="#0D0D11"/>
</linearGradient>
</defs>
</svg>
